%TF.GenerationSoftware,KiCad,Pcbnew,9.0.6*%
%TF.CreationDate,2026-02-02T21:59:20-08:00*%
%TF.ProjectId,Museum,4d757365-756d-42e6-9b69-6361645f7063,rev?*%
%TF.SameCoordinates,Original*%
%TF.FileFunction,Copper,L2,Bot*%
%TF.FilePolarity,Positive*%
%FSLAX46Y46*%
G04 Gerber Fmt 4.6, Leading zero omitted, Abs format (unit mm)*
G04 Created by KiCad (PCBNEW 9.0.6) date 2026-02-02 21:59:20*
%MOMM*%
%LPD*%
G01*
G04 APERTURE LIST*
%TA.AperFunction,ComponentPad*%
%ADD10C,1.700000*%
%TD*%
%TA.AperFunction,ComponentPad*%
%ADD11R,0.850000X0.850000*%
%TD*%
%TA.AperFunction,ComponentPad*%
%ADD12C,0.850000*%
%TD*%
%TA.AperFunction,ComponentPad*%
%ADD13C,1.905000*%
%TD*%
%TA.AperFunction,ComponentPad*%
%ADD14O,3.556000X1.778000*%
%TD*%
%TA.AperFunction,ViaPad*%
%ADD15C,0.600000*%
%TD*%
%TA.AperFunction,Conductor*%
%ADD16C,0.200000*%
%TD*%
G04 APERTURE END LIST*
D10*
%TO.P,M1,1*%
%TO.N,/D0*%
X142930000Y-112190000D03*
%TO.P,M1,2,-*%
%TO.N,/D1*%
X142930000Y-119810000D03*
%TO.P,M1,3*%
%TO.N,/D2*%
X120070000Y-119810000D03*
%TO.P,M1,4*%
%TO.N,/D3*%
X120070000Y-112190000D03*
%TD*%
D11*
%TO.P,J3,1,Pin_1*%
%TO.N,/D6*%
X109000000Y-96500000D03*
D12*
%TO.P,J3,2,Pin_2*%
%TO.N,GND*%
X109000000Y-97500000D03*
%TD*%
D11*
%TO.P,J2,1,Pin_1*%
%TO.N,/SCL*%
X109500000Y-133500000D03*
D12*
%TO.P,J2,2,Pin_2*%
%TO.N,/SDA*%
X110500000Y-133500000D03*
%TD*%
D11*
%TO.P,J1,1,Pin_1*%
%TO.N,+BATT*%
X57000000Y-111500000D03*
D12*
%TO.P,J1,2,Pin_2*%
%TO.N,-BATT*%
X57000000Y-110500000D03*
%TD*%
D13*
%TO.P,U3,16,-BATT*%
%TO.N,-BATT*%
X88960000Y-98220000D03*
%TO.P,U3,15,+BATT*%
%TO.N,+BATT*%
X94040000Y-98220000D03*
D14*
%TO.P,U3,14,5V*%
%TO.N,unconnected-(U3-5V-Pad14)*%
X83118000Y-123620000D03*
%TO.P,U3,13,GND*%
%TO.N,GND*%
X83118000Y-121080000D03*
%TO.P,U3,12,3V3*%
%TO.N,+3V3*%
X83118000Y-118540000D03*
%TO.P,U3,11,GPIO9_A10_D10_COPI*%
%TO.N,/D10*%
X83118000Y-116000000D03*
%TO.P,U3,10,GPIO8_A9_D9_CIPO*%
%TO.N,/D9*%
X83118000Y-113460000D03*
%TO.P,U3,9,GPIO7_A8_D8_SCK*%
%TO.N,/D8*%
X83118000Y-110920000D03*
%TO.P,U3,8,GPIO44_D7_RX*%
%TO.N,/D7*%
X83118000Y-108380000D03*
%TO.P,U3,7,GPIO43_TX_D6*%
%TO.N,/D6*%
X99882000Y-108380000D03*
%TO.P,U3,6,GPIO6_A5_D5_SCL*%
%TO.N,/SCL*%
X99882000Y-110920000D03*
%TO.P,U3,5,GPIO4_A3_D3_SDA*%
%TO.N,/SDA*%
X99882000Y-113460000D03*
%TO.P,U3,4,GPIO4_A3_D3*%
%TO.N,/D3*%
X99882000Y-116000000D03*
%TO.P,U3,3,GPIO3_A2_D2*%
%TO.N,/D2*%
X99882000Y-118540000D03*
%TO.P,U3,2,GPIO2_A1_D1*%
%TO.N,/D1*%
X99882000Y-121080000D03*
%TO.P,U3,1,GPIO1_A0_D0*%
%TO.N,/D0*%
X99882000Y-123620000D03*
%TD*%
D15*
%TO.N,+BATT*%
X81000000Y-102500000D03*
X71500000Y-110500000D03*
%TO.N,-BATT*%
X76500000Y-98000000D03*
X68000000Y-107000000D03*
%TD*%
D16*
%TO.N,+BATT*%
X79500000Y-102500000D02*
X81000000Y-102500000D01*
X71500000Y-110500000D02*
X79500000Y-102500000D01*
%TO.N,-BATT*%
X76500000Y-98500000D02*
X76500000Y-98000000D01*
X68000000Y-107000000D02*
X76500000Y-98500000D01*
%TD*%
%TA.AperFunction,Conductor*%
%TO.N,GND*%
G36*
X188942539Y-40520185D02*
G01*
X188988294Y-40572989D01*
X188999500Y-40624500D01*
X188999500Y-84262342D01*
X188979815Y-84329381D01*
X188968128Y-84344781D01*
X144812418Y-133957939D01*
X144753144Y-133994930D01*
X144719790Y-133999500D01*
X111480433Y-133999500D01*
X111413394Y-133979815D01*
X111367639Y-133927011D01*
X111357695Y-133857853D01*
X111365872Y-133828048D01*
X111389931Y-133769962D01*
X111389933Y-133769958D01*
X111421194Y-133612802D01*
X111425500Y-133591156D01*
X111425500Y-133408843D01*
X111389934Y-133230047D01*
X111389933Y-133230046D01*
X111389933Y-133230042D01*
X111389931Y-133230037D01*
X111320168Y-133061612D01*
X111320166Y-133061608D01*
X111218886Y-132910032D01*
X111218880Y-132910024D01*
X111089975Y-132781119D01*
X111089967Y-132781113D01*
X110938391Y-132679833D01*
X110938387Y-132679831D01*
X110769962Y-132610068D01*
X110769952Y-132610065D01*
X110591156Y-132574500D01*
X110591154Y-132574500D01*
X110408846Y-132574500D01*
X110408844Y-132574500D01*
X110230047Y-132610065D01*
X110230034Y-132610069D01*
X110218545Y-132614828D01*
X110149076Y-132622294D01*
X110127765Y-132616447D01*
X110123424Y-132614828D01*
X110092604Y-132603332D01*
X110032481Y-132580908D01*
X110032483Y-132580908D01*
X109972883Y-132574501D01*
X109972881Y-132574500D01*
X109972873Y-132574500D01*
X109972864Y-132574500D01*
X109027129Y-132574500D01*
X109027123Y-132574501D01*
X108967516Y-132580908D01*
X108832671Y-132631202D01*
X108832664Y-132631206D01*
X108717455Y-132717452D01*
X108717452Y-132717455D01*
X108631206Y-132832664D01*
X108631202Y-132832671D01*
X108580908Y-132967517D01*
X108574501Y-133027116D01*
X108574500Y-133027135D01*
X108574500Y-133500008D01*
X108554815Y-133567047D01*
X108502011Y-133612802D01*
X108432853Y-133622746D01*
X108369297Y-133593721D01*
X108357520Y-133582049D01*
X106758214Y-131769503D01*
X101408416Y-125706397D01*
X101400500Y-125692686D01*
X101364952Y-125657138D01*
X101331698Y-125619450D01*
X101331696Y-125619448D01*
X101331694Y-125619447D01*
X101328839Y-125617552D01*
X101309738Y-125601924D01*
X101307315Y-125599501D01*
X101307314Y-125599500D01*
X101267124Y-125576296D01*
X101263771Y-125574360D01*
X101221902Y-125546567D01*
X101206900Y-125541525D01*
X101196155Y-125535321D01*
X101196154Y-125535320D01*
X101193194Y-125533611D01*
X101193183Y-125533607D01*
X101148369Y-125521598D01*
X101148369Y-125521599D01*
X101144622Y-125520595D01*
X101096984Y-125504585D01*
X101081185Y-125503597D01*
X101069205Y-125500387D01*
X101065895Y-125499500D01*
X101065892Y-125499500D01*
X101015629Y-125499500D01*
X100965456Y-125496364D01*
X100949937Y-125499500D01*
X56124500Y-125499500D01*
X56057461Y-125479815D01*
X56011706Y-125427011D01*
X56000500Y-125375500D01*
X56000500Y-112364954D01*
X56020185Y-112297915D01*
X56072989Y-112252160D01*
X56142147Y-112242216D01*
X56205703Y-112271241D01*
X56212181Y-112277273D01*
X56217455Y-112282547D01*
X56332664Y-112368793D01*
X56332671Y-112368797D01*
X56467517Y-112419091D01*
X56467516Y-112419091D01*
X56474444Y-112419835D01*
X56527127Y-112425500D01*
X57472872Y-112425499D01*
X57532483Y-112419091D01*
X57667331Y-112368796D01*
X57782546Y-112282546D01*
X57868796Y-112167331D01*
X57919091Y-112032483D01*
X57925500Y-111972873D01*
X57925499Y-111027128D01*
X57919091Y-110967517D01*
X57883551Y-110872231D01*
X57878568Y-110802542D01*
X57885173Y-110781447D01*
X57889933Y-110769958D01*
X57925500Y-110591154D01*
X57925500Y-110421153D01*
X70699500Y-110421153D01*
X70699500Y-110578846D01*
X70730261Y-110733489D01*
X70730264Y-110733501D01*
X70790602Y-110879172D01*
X70790609Y-110879185D01*
X70878210Y-111010288D01*
X70878213Y-111010292D01*
X70989707Y-111121786D01*
X70989711Y-111121789D01*
X71120814Y-111209390D01*
X71120827Y-111209397D01*
X71266498Y-111269735D01*
X71266503Y-111269737D01*
X71421153Y-111300499D01*
X71421156Y-111300500D01*
X71421158Y-111300500D01*
X71578844Y-111300500D01*
X71578845Y-111300499D01*
X71733497Y-111269737D01*
X71879179Y-111209394D01*
X72010289Y-111121789D01*
X72121789Y-111010289D01*
X72209394Y-110879179D01*
X72269737Y-110733497D01*
X72298051Y-110591154D01*
X72300638Y-110578150D01*
X72333023Y-110516239D01*
X72334518Y-110514716D01*
X74578596Y-108270638D01*
X80839500Y-108270638D01*
X80839500Y-108489361D01*
X80873714Y-108705376D01*
X80941297Y-108913380D01*
X80941298Y-108913383D01*
X81040595Y-109108260D01*
X81169142Y-109285193D01*
X81323806Y-109439857D01*
X81474969Y-109549682D01*
X81517635Y-109605011D01*
X81523614Y-109674625D01*
X81491009Y-109736420D01*
X81474969Y-109750318D01*
X81323806Y-109860142D01*
X81169142Y-110014806D01*
X81040595Y-110191739D01*
X80941298Y-110386616D01*
X80941297Y-110386619D01*
X80873714Y-110594623D01*
X80839500Y-110810638D01*
X80839500Y-111029361D01*
X80873714Y-111245376D01*
X80941297Y-111453380D01*
X80941298Y-111453383D01*
X81040595Y-111648260D01*
X81169142Y-111825193D01*
X81323806Y-111979857D01*
X81474969Y-112089682D01*
X81517635Y-112145011D01*
X81523614Y-112214625D01*
X81491009Y-112276420D01*
X81474969Y-112290318D01*
X81323806Y-112400142D01*
X81169142Y-112554806D01*
X81040595Y-112731739D01*
X80941298Y-112926616D01*
X80941297Y-112926619D01*
X80873714Y-113134623D01*
X80839500Y-113350638D01*
X80839500Y-113569361D01*
X80873714Y-113785376D01*
X80941297Y-113993380D01*
X80941298Y-113993383D01*
X81040595Y-114188260D01*
X81169142Y-114365193D01*
X81323806Y-114519857D01*
X81474969Y-114629682D01*
X81517635Y-114685011D01*
X81523614Y-114754625D01*
X81491009Y-114816420D01*
X81474969Y-114830318D01*
X81323806Y-114940142D01*
X81169142Y-115094806D01*
X81040595Y-115271739D01*
X80941298Y-115466616D01*
X80941297Y-115466619D01*
X80873714Y-115674623D01*
X80839500Y-115890638D01*
X80839500Y-116109361D01*
X80873714Y-116325376D01*
X80941297Y-116533380D01*
X80941298Y-116533383D01*
X81040595Y-116728260D01*
X81169142Y-116905193D01*
X81323806Y-117059857D01*
X81474969Y-117169682D01*
X81517635Y-117225011D01*
X81523614Y-117294625D01*
X81491009Y-117356420D01*
X81474969Y-117370318D01*
X81323806Y-117480142D01*
X81169142Y-117634806D01*
X81040595Y-117811739D01*
X80941298Y-118006616D01*
X80941297Y-118006619D01*
X80873714Y-118214623D01*
X80839500Y-118430638D01*
X80839500Y-118649361D01*
X80873714Y-118865376D01*
X80941297Y-119073380D01*
X80941298Y-119073383D01*
X81040595Y-119268260D01*
X81169142Y-119445193D01*
X81323802Y-119599853D01*
X81323807Y-119599857D01*
X81475394Y-119709991D01*
X81518060Y-119765320D01*
X81524039Y-119834934D01*
X81491434Y-119896729D01*
X81475394Y-119910627D01*
X81324133Y-120020524D01*
X81324128Y-120020528D01*
X81169528Y-120175128D01*
X81169524Y-120175133D01*
X81041023Y-120352001D01*
X80941762Y-120546808D01*
X80941761Y-120546811D01*
X80874201Y-120754741D01*
X80862282Y-120830000D01*
X83437749Y-120830000D01*
X83406619Y-120883919D01*
X83372000Y-121013120D01*
X83372000Y-121146880D01*
X83406619Y-121276081D01*
X83437749Y-121330000D01*
X80862282Y-121330000D01*
X80874201Y-121405258D01*
X80941761Y-121613188D01*
X80941762Y-121613191D01*
X81041023Y-121807998D01*
X81169524Y-121984866D01*
X81169528Y-121984871D01*
X81324128Y-122139471D01*
X81324133Y-122139475D01*
X81475394Y-122249372D01*
X81518060Y-122304701D01*
X81524039Y-122374315D01*
X81491434Y-122436110D01*
X81475394Y-122450008D01*
X81323807Y-122560142D01*
X81323802Y-122560146D01*
X81169142Y-122714806D01*
X81040595Y-122891739D01*
X80941298Y-123086616D01*
X80941297Y-123086619D01*
X80873714Y-123294623D01*
X80839500Y-123510638D01*
X80839500Y-123729361D01*
X80873714Y-123945376D01*
X80941297Y-124153380D01*
X80941298Y-124153383D01*
X81040595Y-124348260D01*
X81169142Y-124525193D01*
X81323806Y-124679857D01*
X81458357Y-124777612D01*
X81500743Y-124808407D01*
X81628132Y-124873315D01*
X81695616Y-124907701D01*
X81695619Y-124907702D01*
X81799621Y-124941493D01*
X81903625Y-124975286D01*
X82003672Y-124991132D01*
X82119639Y-125009500D01*
X82119644Y-125009500D01*
X84116361Y-125009500D01*
X84221082Y-124992912D01*
X84332375Y-124975286D01*
X84540383Y-124907701D01*
X84735257Y-124808407D01*
X84834601Y-124736229D01*
X84912193Y-124679857D01*
X84912195Y-124679854D01*
X84912199Y-124679852D01*
X85066852Y-124525199D01*
X85066854Y-124525195D01*
X85066857Y-124525193D01*
X85143278Y-124420007D01*
X85195407Y-124348257D01*
X85294701Y-124153383D01*
X85362286Y-123945375D01*
X85379912Y-123834082D01*
X85396500Y-123729361D01*
X85396500Y-123510638D01*
X85376080Y-123381716D01*
X85362286Y-123294625D01*
X85294701Y-123086617D01*
X85294701Y-123086616D01*
X85260315Y-123019132D01*
X85195407Y-122891743D01*
X85187147Y-122880374D01*
X85066857Y-122714806D01*
X84912197Y-122560146D01*
X84912192Y-122560142D01*
X84760605Y-122450008D01*
X84717939Y-122394678D01*
X84711960Y-122325065D01*
X84744565Y-122263270D01*
X84760605Y-122249371D01*
X84911873Y-122139469D01*
X85066471Y-121984871D01*
X85066475Y-121984866D01*
X85194976Y-121807998D01*
X85294237Y-121613191D01*
X85294238Y-121613188D01*
X85361798Y-121405258D01*
X85373718Y-121330000D01*
X84322251Y-121330000D01*
X84353381Y-121276081D01*
X84388000Y-121146880D01*
X84388000Y-121013120D01*
X84353381Y-120883919D01*
X84322251Y-120830000D01*
X85373718Y-120830000D01*
X85361798Y-120754741D01*
X85294238Y-120546811D01*
X85294237Y-120546808D01*
X85194976Y-120352001D01*
X85066475Y-120175133D01*
X85066471Y-120175128D01*
X84911871Y-120020528D01*
X84911866Y-120020524D01*
X84760605Y-119910627D01*
X84717939Y-119855297D01*
X84711960Y-119785684D01*
X84744565Y-119723889D01*
X84760599Y-119709994D01*
X84912199Y-119599852D01*
X85066852Y-119445199D01*
X85066854Y-119445195D01*
X85066857Y-119445193D01*
X85178458Y-119291585D01*
X85195407Y-119268257D01*
X85294701Y-119073383D01*
X85362286Y-118865375D01*
X85379912Y-118754082D01*
X85396500Y-118649361D01*
X85396500Y-118430638D01*
X85376595Y-118304971D01*
X85362286Y-118214625D01*
X85294701Y-118006617D01*
X85294701Y-118006616D01*
X85260315Y-117939132D01*
X85195407Y-117811743D01*
X85187147Y-117800374D01*
X85066857Y-117634806D01*
X84912199Y-117480148D01*
X84912191Y-117480142D01*
X84761028Y-117370316D01*
X84718364Y-117314989D01*
X84712385Y-117245376D01*
X84744990Y-117183580D01*
X84761023Y-117169686D01*
X84912199Y-117059852D01*
X85066852Y-116905199D01*
X85066854Y-116905195D01*
X85066857Y-116905193D01*
X85123229Y-116827601D01*
X85195407Y-116728257D01*
X85294701Y-116533383D01*
X85362286Y-116325375D01*
X85386576Y-116172016D01*
X85396500Y-116109361D01*
X85396500Y-115890638D01*
X85370480Y-115726362D01*
X85362286Y-115674625D01*
X85294701Y-115466617D01*
X85294701Y-115466616D01*
X85260315Y-115399132D01*
X85195407Y-115271743D01*
X85172178Y-115239771D01*
X85066857Y-115094806D01*
X84912199Y-114940148D01*
X84912191Y-114940142D01*
X84761028Y-114830316D01*
X84718364Y-114774989D01*
X84712385Y-114705376D01*
X84744990Y-114643580D01*
X84761023Y-114629686D01*
X84912199Y-114519852D01*
X85066852Y-114365199D01*
X85066854Y-114365195D01*
X85066857Y-114365193D01*
X85123229Y-114287601D01*
X85195407Y-114188257D01*
X85294701Y-113993383D01*
X85362286Y-113785375D01*
X85379912Y-113674082D01*
X85396500Y-113569361D01*
X85396500Y-113350638D01*
X85375825Y-113220109D01*
X85362286Y-113134625D01*
X85294701Y-112926617D01*
X85294701Y-112926616D01*
X85260315Y-112859132D01*
X85195407Y-112731743D01*
X85178456Y-112708412D01*
X85066857Y-112554806D01*
X84912199Y-112400148D01*
X84912191Y-112400142D01*
X84761028Y-112290316D01*
X84718364Y-112234989D01*
X84712385Y-112165376D01*
X84744990Y-112103580D01*
X84761023Y-112089686D01*
X84912199Y-111979852D01*
X85066852Y-111825199D01*
X85066854Y-111825195D01*
X85066857Y-111825193D01*
X85178458Y-111671585D01*
X85195407Y-111648257D01*
X85294701Y-111453383D01*
X85362286Y-111245375D01*
X85381861Y-111121786D01*
X85396500Y-111029361D01*
X85396500Y-110810638D01*
X85376595Y-110684971D01*
X85362286Y-110594625D01*
X85305924Y-110421158D01*
X85294702Y-110386619D01*
X85294701Y-110386616D01*
X85233499Y-110266503D01*
X85195407Y-110191743D01*
X85143880Y-110120821D01*
X85066857Y-110014806D01*
X84912199Y-109860148D01*
X84912191Y-109860142D01*
X84761028Y-109750316D01*
X84718364Y-109694989D01*
X84712385Y-109625376D01*
X84744990Y-109563580D01*
X84761023Y-109549686D01*
X84912199Y-109439852D01*
X85066852Y-109285199D01*
X85066854Y-109285195D01*
X85066857Y-109285193D01*
X85123229Y-109207601D01*
X85195407Y-109108257D01*
X85294701Y-108913383D01*
X85362286Y-108705375D01*
X85379912Y-108594082D01*
X85396500Y-108489361D01*
X85396500Y-108270638D01*
X97603500Y-108270638D01*
X97603500Y-108489361D01*
X97637714Y-108705376D01*
X97705297Y-108913380D01*
X97705298Y-108913383D01*
X97804595Y-109108260D01*
X97933142Y-109285193D01*
X98087806Y-109439857D01*
X98238969Y-109549682D01*
X98281635Y-109605011D01*
X98287614Y-109674625D01*
X98255009Y-109736420D01*
X98238969Y-109750318D01*
X98087806Y-109860142D01*
X97933142Y-110014806D01*
X97804595Y-110191739D01*
X97705298Y-110386616D01*
X97705297Y-110386619D01*
X97637714Y-110594623D01*
X97603500Y-110810638D01*
X97603500Y-111029361D01*
X97637714Y-111245376D01*
X97705297Y-111453380D01*
X97705298Y-111453383D01*
X97804595Y-111648260D01*
X97933142Y-111825193D01*
X98087806Y-111979857D01*
X98238969Y-112089682D01*
X98281635Y-112145011D01*
X98287614Y-112214625D01*
X98255009Y-112276420D01*
X98238969Y-112290318D01*
X98087806Y-112400142D01*
X97933142Y-112554806D01*
X97804595Y-112731739D01*
X97705298Y-112926616D01*
X97705297Y-112926619D01*
X97637714Y-113134623D01*
X97603500Y-113350638D01*
X97603500Y-113569361D01*
X97637714Y-113785376D01*
X97705297Y-113993380D01*
X97705298Y-113993383D01*
X97804595Y-114188260D01*
X97933142Y-114365193D01*
X98087806Y-114519857D01*
X98238969Y-114629682D01*
X98281635Y-114685011D01*
X98287614Y-114754625D01*
X98255009Y-114816420D01*
X98238969Y-114830318D01*
X98087806Y-114940142D01*
X97933142Y-115094806D01*
X97804595Y-115271739D01*
X97705298Y-115466616D01*
X97705297Y-115466619D01*
X97637714Y-115674623D01*
X97603500Y-115890638D01*
X97603500Y-116109361D01*
X97637714Y-116325376D01*
X97705297Y-116533380D01*
X97705298Y-116533383D01*
X97804595Y-116728260D01*
X97933142Y-116905193D01*
X98087806Y-117059857D01*
X98238969Y-117169682D01*
X98281635Y-117225011D01*
X98287614Y-117294625D01*
X98255009Y-117356420D01*
X98238969Y-117370318D01*
X98087806Y-117480142D01*
X97933142Y-117634806D01*
X97804595Y-117811739D01*
X97705298Y-118006616D01*
X97705297Y-118006619D01*
X97637714Y-118214623D01*
X97603500Y-118430638D01*
X97603500Y-118649361D01*
X97637714Y-118865376D01*
X97705297Y-119073380D01*
X97705298Y-119073383D01*
X97804595Y-119268260D01*
X97933142Y-119445193D01*
X98087806Y-119599857D01*
X98238969Y-119709682D01*
X98281635Y-119765011D01*
X98287614Y-119834625D01*
X98255009Y-119896420D01*
X98238969Y-119910318D01*
X98087806Y-120020142D01*
X97933142Y-120174806D01*
X97804595Y-120351739D01*
X97705298Y-120546616D01*
X97705297Y-120546619D01*
X97637714Y-120754623D01*
X97603500Y-120970638D01*
X97603500Y-121189361D01*
X97637714Y-121405376D01*
X97705297Y-121613380D01*
X97705298Y-121613383D01*
X97772782Y-121745825D01*
X97804461Y-121807998D01*
X97804595Y-121808260D01*
X97933142Y-121985193D01*
X98087806Y-122139857D01*
X98238969Y-122249682D01*
X98281635Y-122305011D01*
X98287614Y-122374625D01*
X98255009Y-122436420D01*
X98238969Y-122450318D01*
X98087806Y-122560142D01*
X97933142Y-122714806D01*
X97804595Y-122891739D01*
X97705298Y-123086616D01*
X97705297Y-123086619D01*
X97637714Y-123294623D01*
X97603500Y-123510638D01*
X97603500Y-123729361D01*
X97637714Y-123945376D01*
X97705297Y-124153380D01*
X97705298Y-124153383D01*
X97804595Y-124348260D01*
X97933142Y-124525193D01*
X98087806Y-124679857D01*
X98222357Y-124777612D01*
X98264743Y-124808407D01*
X98392132Y-124873315D01*
X98459616Y-124907701D01*
X98459619Y-124907702D01*
X98563621Y-124941493D01*
X98667625Y-124975286D01*
X98767672Y-124991132D01*
X98883639Y-125009500D01*
X98883644Y-125009500D01*
X100880361Y-125009500D01*
X100985082Y-124992912D01*
X101096375Y-124975286D01*
X101304383Y-124907701D01*
X101354833Y-124881995D01*
X120699500Y-124881995D01*
X120699500Y-125118004D01*
X120699501Y-125118020D01*
X120714517Y-125232083D01*
X120730307Y-125352014D01*
X120789886Y-125574364D01*
X120791394Y-125579993D01*
X120881714Y-125798045D01*
X120881719Y-125798056D01*
X120952677Y-125920957D01*
X120999727Y-126002450D01*
X120999729Y-126002453D01*
X120999730Y-126002454D01*
X121143406Y-126189697D01*
X121143412Y-126189704D01*
X121310295Y-126356587D01*
X121310301Y-126356592D01*
X121497550Y-126500273D01*
X121628918Y-126576118D01*
X121701943Y-126618280D01*
X121701948Y-126618282D01*
X121701951Y-126618284D01*
X121920007Y-126708606D01*
X122147986Y-126769693D01*
X122381989Y-126800500D01*
X122381996Y-126800500D01*
X122618004Y-126800500D01*
X122618011Y-126800500D01*
X122852014Y-126769693D01*
X123079993Y-126708606D01*
X123298049Y-126618284D01*
X123502450Y-126500273D01*
X123689699Y-126356592D01*
X123856592Y-126189699D01*
X124000273Y-126002450D01*
X124118284Y-125798049D01*
X124208606Y-125579993D01*
X124269693Y-125352014D01*
X124300500Y-125118011D01*
X124300500Y-124881989D01*
X124269693Y-124647986D01*
X124208606Y-124420007D01*
X124118284Y-124201951D01*
X124118282Y-124201948D01*
X124118280Y-124201943D01*
X124076118Y-124128918D01*
X124000273Y-123997550D01*
X123856592Y-123810301D01*
X123856587Y-123810295D01*
X123689704Y-123643412D01*
X123689697Y-123643406D01*
X123502454Y-123499730D01*
X123502453Y-123499729D01*
X123502450Y-123499727D01*
X123420957Y-123452677D01*
X123298056Y-123381719D01*
X123298045Y-123381714D01*
X123079993Y-123291394D01*
X122852010Y-123230306D01*
X122618020Y-123199501D01*
X122618017Y-123199500D01*
X122618011Y-123199500D01*
X122381989Y-123199500D01*
X122381983Y-123199500D01*
X122381979Y-123199501D01*
X122147989Y-123230306D01*
X121920006Y-123291394D01*
X121701954Y-123381714D01*
X121701943Y-123381719D01*
X121497545Y-123499730D01*
X121310302Y-123643406D01*
X121310295Y-123643412D01*
X121143412Y-123810295D01*
X121143406Y-123810302D01*
X120999730Y-123997545D01*
X120881719Y-124201943D01*
X120881714Y-124201954D01*
X120791394Y-124420006D01*
X120730306Y-124647989D01*
X120699501Y-124881979D01*
X120699500Y-124881995D01*
X101354833Y-124881995D01*
X101499257Y-124808407D01*
X101521466Y-124792270D01*
X101541644Y-124777612D01*
X101676193Y-124679857D01*
X101676195Y-124679854D01*
X101676199Y-124679852D01*
X101830852Y-124525199D01*
X101830854Y-124525195D01*
X101830857Y-124525193D01*
X101907278Y-124420007D01*
X101959407Y-124348257D01*
X102058701Y-124153383D01*
X102126286Y-123945375D01*
X102143912Y-123834082D01*
X102160500Y-123729361D01*
X102160500Y-123510638D01*
X102140080Y-123381716D01*
X102126286Y-123294625D01*
X102058701Y-123086617D01*
X102058701Y-123086616D01*
X102024315Y-123019132D01*
X101959407Y-122891743D01*
X101951147Y-122880374D01*
X101830857Y-122714806D01*
X101676199Y-122560148D01*
X101676191Y-122560142D01*
X101525028Y-122450316D01*
X101482364Y-122394989D01*
X101476385Y-122325376D01*
X101508990Y-122263580D01*
X101525023Y-122249686D01*
X101676199Y-122139852D01*
X101830852Y-121985199D01*
X101830854Y-121985195D01*
X101830857Y-121985193D01*
X101887229Y-121907601D01*
X101959407Y-121808257D01*
X102058701Y-121613383D01*
X102126286Y-121405375D01*
X102146764Y-121276081D01*
X102160500Y-121189361D01*
X102160500Y-120970638D01*
X102139825Y-120840109D01*
X102126286Y-120754625D01*
X102078197Y-120606619D01*
X102058702Y-120546619D01*
X102058701Y-120546616D01*
X102024315Y-120479132D01*
X101959407Y-120351743D01*
X101942456Y-120328412D01*
X101830857Y-120174806D01*
X101676199Y-120020148D01*
X101676191Y-120020142D01*
X101525028Y-119910316D01*
X101507849Y-119888038D01*
X101488245Y-119867866D01*
X101486801Y-119860744D01*
X101482364Y-119854989D01*
X101479956Y-119826959D01*
X101474370Y-119799388D01*
X101477006Y-119792615D01*
X101476385Y-119785376D01*
X101489513Y-119760494D01*
X101499720Y-119734279D01*
X101507160Y-119727048D01*
X101508990Y-119723580D01*
X101525023Y-119709686D01*
X101533244Y-119703713D01*
X118719500Y-119703713D01*
X118719500Y-119916287D01*
X118752754Y-120126243D01*
X118768639Y-120175133D01*
X118818444Y-120328414D01*
X118914951Y-120517820D01*
X119039890Y-120689786D01*
X119190213Y-120840109D01*
X119362179Y-120965048D01*
X119362181Y-120965049D01*
X119362184Y-120965051D01*
X119551588Y-121061557D01*
X119753757Y-121127246D01*
X119963713Y-121160500D01*
X119963714Y-121160500D01*
X120176286Y-121160500D01*
X120176287Y-121160500D01*
X120386243Y-121127246D01*
X120588412Y-121061557D01*
X120777816Y-120965051D01*
X120799789Y-120949086D01*
X120949786Y-120840109D01*
X120949788Y-120840106D01*
X120949792Y-120840104D01*
X121100104Y-120689792D01*
X121100106Y-120689788D01*
X121100109Y-120689786D01*
X121225048Y-120517820D01*
X121225047Y-120517820D01*
X121225051Y-120517816D01*
X121321557Y-120328412D01*
X121387246Y-120126243D01*
X121420500Y-119916287D01*
X121420500Y-119703713D01*
X141579500Y-119703713D01*
X141579500Y-119916287D01*
X141612754Y-120126243D01*
X141628639Y-120175133D01*
X141678444Y-120328414D01*
X141774951Y-120517820D01*
X141899890Y-120689786D01*
X142050213Y-120840109D01*
X142222179Y-120965048D01*
X142222181Y-120965049D01*
X142222184Y-120965051D01*
X142411588Y-121061557D01*
X142613757Y-121127246D01*
X142823713Y-121160500D01*
X142823714Y-121160500D01*
X143036286Y-121160500D01*
X143036287Y-121160500D01*
X143246243Y-121127246D01*
X143448412Y-121061557D01*
X143637816Y-120965051D01*
X143659789Y-120949086D01*
X143809786Y-120840109D01*
X143809788Y-120840106D01*
X143809792Y-120840104D01*
X143960104Y-120689792D01*
X143960106Y-120689788D01*
X143960109Y-120689786D01*
X144085048Y-120517820D01*
X144085047Y-120517820D01*
X144085051Y-120517816D01*
X144181557Y-120328412D01*
X144247246Y-120126243D01*
X144280500Y-119916287D01*
X144280500Y-119703713D01*
X144247246Y-119493757D01*
X144181557Y-119291588D01*
X144085051Y-119102184D01*
X144085049Y-119102181D01*
X144085048Y-119102179D01*
X143960109Y-118930213D01*
X143809786Y-118779890D01*
X143637820Y-118654951D01*
X143448414Y-118558444D01*
X143448413Y-118558443D01*
X143448412Y-118558443D01*
X143246243Y-118492754D01*
X143246241Y-118492753D01*
X143246240Y-118492753D01*
X143084957Y-118467208D01*
X143036287Y-118459500D01*
X142823713Y-118459500D01*
X142775042Y-118467208D01*
X142613760Y-118492753D01*
X142411585Y-118558444D01*
X142222179Y-118654951D01*
X142050213Y-118779890D01*
X141899890Y-118930213D01*
X141774951Y-119102179D01*
X141678444Y-119291585D01*
X141612753Y-119493760D01*
X141595950Y-119599851D01*
X141579500Y-119703713D01*
X121420500Y-119703713D01*
X121387246Y-119493757D01*
X121321557Y-119291588D01*
X121225051Y-119102184D01*
X121225049Y-119102181D01*
X121225048Y-119102179D01*
X121100109Y-118930213D01*
X120949786Y-118779890D01*
X120777820Y-118654951D01*
X120588414Y-118558444D01*
X120588413Y-118558443D01*
X120588412Y-118558443D01*
X120386243Y-118492754D01*
X120386241Y-118492753D01*
X120386240Y-118492753D01*
X120224957Y-118467208D01*
X120176287Y-118459500D01*
X119963713Y-118459500D01*
X119915042Y-118467208D01*
X119753760Y-118492753D01*
X119551585Y-118558444D01*
X119362179Y-118654951D01*
X119190213Y-118779890D01*
X119039890Y-118930213D01*
X118914951Y-119102179D01*
X118818444Y-119291585D01*
X118752753Y-119493760D01*
X118735950Y-119599851D01*
X118719500Y-119703713D01*
X101533244Y-119703713D01*
X101676199Y-119599852D01*
X101830852Y-119445199D01*
X101830854Y-119445195D01*
X101830857Y-119445193D01*
X101942458Y-119291585D01*
X101959407Y-119268257D01*
X102058701Y-119073383D01*
X102126286Y-118865375D01*
X102143912Y-118754082D01*
X102160500Y-118649361D01*
X102160500Y-118430638D01*
X102140595Y-118304971D01*
X102126286Y-118214625D01*
X102058701Y-118006617D01*
X102058701Y-118006616D01*
X102024315Y-117939132D01*
X101959407Y-117811743D01*
X101951147Y-117800374D01*
X101830857Y-117634806D01*
X101676199Y-117480148D01*
X101676191Y-117480142D01*
X101525028Y-117370316D01*
X101482364Y-117314989D01*
X101476385Y-117245376D01*
X101508990Y-117183580D01*
X101525023Y-117169686D01*
X101676199Y-117059852D01*
X101830852Y-116905199D01*
X101830854Y-116905195D01*
X101830857Y-116905193D01*
X101887229Y-116827601D01*
X101959407Y-116728257D01*
X102058701Y-116533383D01*
X102126286Y-116325375D01*
X102150576Y-116172016D01*
X102160500Y-116109361D01*
X102160500Y-115890644D01*
X102160499Y-115890632D01*
X102159740Y-115885837D01*
X116549500Y-115885837D01*
X116549500Y-116114162D01*
X116585215Y-116339660D01*
X116655770Y-116556803D01*
X116759421Y-116760228D01*
X116893621Y-116944937D01*
X117055063Y-117106379D01*
X117239772Y-117240579D01*
X117297514Y-117270000D01*
X117443196Y-117344229D01*
X117443198Y-117344229D01*
X117443201Y-117344231D01*
X117559592Y-117382049D01*
X117660339Y-117414784D01*
X117885838Y-117450500D01*
X117885843Y-117450500D01*
X118114162Y-117450500D01*
X118339660Y-117414784D01*
X118556799Y-117344231D01*
X118760228Y-117240579D01*
X118944937Y-117106379D01*
X119106379Y-116944937D01*
X119240579Y-116760228D01*
X119344231Y-116556799D01*
X119414784Y-116339660D01*
X119425241Y-116273638D01*
X119450500Y-116114162D01*
X119450500Y-115885837D01*
X143549500Y-115885837D01*
X143549500Y-116114162D01*
X143585215Y-116339660D01*
X143655770Y-116556803D01*
X143759421Y-116760228D01*
X143893621Y-116944937D01*
X144055063Y-117106379D01*
X144239772Y-117240579D01*
X144297514Y-117270000D01*
X144443196Y-117344229D01*
X144443198Y-117344229D01*
X144443201Y-117344231D01*
X144559592Y-117382049D01*
X144660339Y-117414784D01*
X144885838Y-117450500D01*
X144885843Y-117450500D01*
X145114162Y-117450500D01*
X145339660Y-117414784D01*
X145556799Y-117344231D01*
X145760228Y-117240579D01*
X145944937Y-117106379D01*
X146106379Y-116944937D01*
X146240579Y-116760228D01*
X146344231Y-116556799D01*
X146414784Y-116339660D01*
X146425241Y-116273638D01*
X146450500Y-116114162D01*
X146450500Y-115885837D01*
X146414784Y-115660339D01*
X146344229Y-115443196D01*
X146240578Y-115239771D01*
X146135254Y-115094806D01*
X146106379Y-115055063D01*
X145944937Y-114893621D01*
X145760228Y-114759421D01*
X145702486Y-114730000D01*
X145556803Y-114655770D01*
X145339660Y-114585215D01*
X145114162Y-114549500D01*
X145114157Y-114549500D01*
X144885843Y-114549500D01*
X144885838Y-114549500D01*
X144660339Y-114585215D01*
X144443196Y-114655770D01*
X144239771Y-114759421D01*
X144055061Y-114893622D01*
X143893622Y-115055061D01*
X143759421Y-115239771D01*
X143655770Y-115443196D01*
X143585215Y-115660339D01*
X143549500Y-115885837D01*
X119450500Y-115885837D01*
X119414784Y-115660339D01*
X119344229Y-115443196D01*
X119240578Y-115239771D01*
X119135254Y-115094806D01*
X119106379Y-115055063D01*
X118944937Y-114893621D01*
X118760228Y-114759421D01*
X118702486Y-114730000D01*
X118556803Y-114655770D01*
X118339660Y-114585215D01*
X118114162Y-114549500D01*
X118114157Y-114549500D01*
X117885843Y-114549500D01*
X117885838Y-114549500D01*
X117660339Y-114585215D01*
X117443196Y-114655770D01*
X117239771Y-114759421D01*
X117055061Y-114893622D01*
X116893622Y-115055061D01*
X116759421Y-115239771D01*
X116655770Y-115443196D01*
X116585215Y-115660339D01*
X116549500Y-115885837D01*
X102159740Y-115885837D01*
X102134480Y-115726362D01*
X102126286Y-115674625D01*
X102058701Y-115466617D01*
X102058701Y-115466616D01*
X102024315Y-115399132D01*
X101959407Y-115271743D01*
X101936178Y-115239771D01*
X101830857Y-115094806D01*
X101676199Y-114940148D01*
X101676191Y-114940142D01*
X101525028Y-114830316D01*
X101482364Y-114774989D01*
X101476385Y-114705376D01*
X101508990Y-114643580D01*
X101525023Y-114629686D01*
X101676199Y-114519852D01*
X101830852Y-114365199D01*
X101830854Y-114365195D01*
X101830857Y-114365193D01*
X101887229Y-114287601D01*
X101959407Y-114188257D01*
X102058701Y-113993383D01*
X102126286Y-113785375D01*
X102143912Y-113674082D01*
X102160500Y-113569361D01*
X102160500Y-113350638D01*
X102139825Y-113220109D01*
X102126286Y-113134625D01*
X102058701Y-112926617D01*
X102058701Y-112926616D01*
X102024315Y-112859132D01*
X101959407Y-112731743D01*
X101942456Y-112708412D01*
X101830857Y-112554806D01*
X101676199Y-112400148D01*
X101676191Y-112400142D01*
X101525028Y-112290316D01*
X101507849Y-112268038D01*
X101488245Y-112247866D01*
X101486801Y-112240744D01*
X101482364Y-112234989D01*
X101479956Y-112206959D01*
X101474370Y-112179388D01*
X101477006Y-112172615D01*
X101476385Y-112165376D01*
X101489513Y-112140494D01*
X101499720Y-112114279D01*
X101507160Y-112107048D01*
X101508990Y-112103580D01*
X101525023Y-112089686D01*
X101533244Y-112083713D01*
X118719500Y-112083713D01*
X118719500Y-112296286D01*
X118752753Y-112506239D01*
X118818444Y-112708414D01*
X118914951Y-112897820D01*
X119039890Y-113069786D01*
X119190213Y-113220109D01*
X119362179Y-113345048D01*
X119362181Y-113345049D01*
X119362184Y-113345051D01*
X119551588Y-113441557D01*
X119753757Y-113507246D01*
X119963713Y-113540500D01*
X119963714Y-113540500D01*
X120176286Y-113540500D01*
X120176287Y-113540500D01*
X120386243Y-113507246D01*
X120588412Y-113441557D01*
X120777816Y-113345051D01*
X120799789Y-113329086D01*
X120949786Y-113220109D01*
X120949788Y-113220106D01*
X120949792Y-113220104D01*
X121100104Y-113069792D01*
X121100106Y-113069788D01*
X121100109Y-113069786D01*
X121225048Y-112897820D01*
X121225047Y-112897820D01*
X121225051Y-112897816D01*
X121321557Y-112708412D01*
X121387246Y-112506243D01*
X121420500Y-112296287D01*
X121420500Y-112083713D01*
X141579500Y-112083713D01*
X141579500Y-112296286D01*
X141612753Y-112506239D01*
X141678444Y-112708414D01*
X141774951Y-112897820D01*
X141899890Y-113069786D01*
X142050213Y-113220109D01*
X142222179Y-113345048D01*
X142222181Y-113345049D01*
X142222184Y-113345051D01*
X142411588Y-113441557D01*
X142613757Y-113507246D01*
X142823713Y-113540500D01*
X142823714Y-113540500D01*
X143036286Y-113540500D01*
X143036287Y-113540500D01*
X143246243Y-113507246D01*
X143448412Y-113441557D01*
X143637816Y-113345051D01*
X143659789Y-113329086D01*
X143809786Y-113220109D01*
X143809788Y-113220106D01*
X143809792Y-113220104D01*
X143960104Y-113069792D01*
X143960106Y-113069788D01*
X143960109Y-113069786D01*
X144085048Y-112897820D01*
X144085047Y-112897820D01*
X144085051Y-112897816D01*
X144181557Y-112708412D01*
X144247246Y-112506243D01*
X144280500Y-112296287D01*
X144280500Y-112083713D01*
X144247246Y-111873757D01*
X144181557Y-111671588D01*
X144085051Y-111482184D01*
X144085049Y-111482181D01*
X144085048Y-111482179D01*
X143960109Y-111310213D01*
X143809786Y-111159890D01*
X143637820Y-111034951D01*
X143448414Y-110938444D01*
X143448413Y-110938443D01*
X143448412Y-110938443D01*
X143246243Y-110872754D01*
X143246241Y-110872753D01*
X143246240Y-110872753D01*
X143084957Y-110847208D01*
X143036287Y-110839500D01*
X142823713Y-110839500D01*
X142775042Y-110847208D01*
X142613760Y-110872753D01*
X142411585Y-110938444D01*
X142222179Y-111034951D01*
X142050213Y-111159890D01*
X141899890Y-111310213D01*
X141774951Y-111482179D01*
X141678444Y-111671585D01*
X141612753Y-111873760D01*
X141579500Y-112083713D01*
X121420500Y-112083713D01*
X121387246Y-111873757D01*
X121321557Y-111671588D01*
X121225051Y-111482184D01*
X121225049Y-111482181D01*
X121225048Y-111482179D01*
X121100109Y-111310213D01*
X120949786Y-111159890D01*
X120777820Y-111034951D01*
X120588414Y-110938444D01*
X120588413Y-110938443D01*
X120588412Y-110938443D01*
X120386243Y-110872754D01*
X120386241Y-110872753D01*
X120386240Y-110872753D01*
X120224957Y-110847208D01*
X120176287Y-110839500D01*
X119963713Y-110839500D01*
X119915042Y-110847208D01*
X119753760Y-110872753D01*
X119551585Y-110938444D01*
X119362179Y-111034951D01*
X119190213Y-111159890D01*
X119039890Y-111310213D01*
X118914951Y-111482179D01*
X118818444Y-111671585D01*
X118752753Y-111873760D01*
X118719500Y-112083713D01*
X101533244Y-112083713D01*
X101676199Y-111979852D01*
X101830852Y-111825199D01*
X101830854Y-111825195D01*
X101830857Y-111825193D01*
X101942458Y-111671585D01*
X101959407Y-111648257D01*
X102058701Y-111453383D01*
X102126286Y-111245375D01*
X102145861Y-111121786D01*
X102160500Y-111029361D01*
X102160500Y-110810638D01*
X102140595Y-110684971D01*
X102126286Y-110594625D01*
X102069924Y-110421158D01*
X102058702Y-110386619D01*
X102058701Y-110386616D01*
X101997499Y-110266503D01*
X101959407Y-110191743D01*
X101907880Y-110120821D01*
X101830857Y-110014806D01*
X101676199Y-109860148D01*
X101676191Y-109860142D01*
X101525028Y-109750316D01*
X101482364Y-109694989D01*
X101476385Y-109625376D01*
X101508990Y-109563580D01*
X101525023Y-109549686D01*
X101676199Y-109439852D01*
X101830852Y-109285199D01*
X101830854Y-109285195D01*
X101830857Y-109285193D01*
X101887229Y-109207601D01*
X101959407Y-109108257D01*
X102058701Y-108913383D01*
X102126286Y-108705375D01*
X102143912Y-108594082D01*
X102160500Y-108489361D01*
X102160500Y-108270638D01*
X102140595Y-108144971D01*
X102126286Y-108054625D01*
X102058701Y-107846617D01*
X102058701Y-107846616D01*
X101988783Y-107709397D01*
X101959407Y-107651743D01*
X101937642Y-107621786D01*
X101830857Y-107474806D01*
X101676193Y-107320142D01*
X101499260Y-107191595D01*
X101499259Y-107191594D01*
X101499257Y-107191593D01*
X101436825Y-107159782D01*
X101304383Y-107092298D01*
X101304380Y-107092297D01*
X101096376Y-107024714D01*
X100880361Y-106990500D01*
X100880356Y-106990500D01*
X98883644Y-106990500D01*
X98883639Y-106990500D01*
X98667623Y-107024714D01*
X98459619Y-107092297D01*
X98459616Y-107092298D01*
X98264739Y-107191595D01*
X98087806Y-107320142D01*
X97933142Y-107474806D01*
X97804595Y-107651739D01*
X97705298Y-107846616D01*
X97705297Y-107846619D01*
X97637714Y-108054623D01*
X97603500Y-108270638D01*
X85396500Y-108270638D01*
X85376595Y-108144971D01*
X85362286Y-108054625D01*
X85294701Y-107846617D01*
X85294701Y-107846616D01*
X85224783Y-107709397D01*
X85195407Y-107651743D01*
X85173642Y-107621786D01*
X85066857Y-107474806D01*
X84912193Y-107320142D01*
X84735260Y-107191595D01*
X84735259Y-107191594D01*
X84735257Y-107191593D01*
X84672825Y-107159782D01*
X84540383Y-107092298D01*
X84540380Y-107092297D01*
X84332376Y-107024714D01*
X84116361Y-106990500D01*
X84116356Y-106990500D01*
X82119644Y-106990500D01*
X82119639Y-106990500D01*
X81903623Y-107024714D01*
X81695619Y-107092297D01*
X81695616Y-107092298D01*
X81500739Y-107191595D01*
X81323806Y-107320142D01*
X81169142Y-107474806D01*
X81040595Y-107651739D01*
X80941298Y-107846616D01*
X80941297Y-107846619D01*
X80873714Y-108054623D01*
X80839500Y-108270638D01*
X74578596Y-108270638D01*
X76986856Y-105862378D01*
X129049500Y-105862378D01*
X129049500Y-106137621D01*
X129080315Y-106411108D01*
X129080317Y-106411124D01*
X129141561Y-106679453D01*
X129141565Y-106679465D01*
X129232467Y-106939246D01*
X129351884Y-107187218D01*
X129351886Y-107187221D01*
X129498319Y-107420268D01*
X129669925Y-107635455D01*
X129864545Y-107830075D01*
X130079732Y-108001681D01*
X130312779Y-108148114D01*
X130560757Y-108267534D01*
X130755865Y-108335805D01*
X130820534Y-108358434D01*
X130820546Y-108358438D01*
X131088879Y-108419683D01*
X131362378Y-108450499D01*
X131362379Y-108450500D01*
X131362383Y-108450500D01*
X131637621Y-108450500D01*
X131637621Y-108450499D01*
X131911121Y-108419683D01*
X132179454Y-108358438D01*
X132439243Y-108267534D01*
X132687221Y-108148114D01*
X132920268Y-108001681D01*
X133135455Y-107830075D01*
X133330075Y-107635455D01*
X133501681Y-107420268D01*
X133648114Y-107187221D01*
X133767534Y-106939243D01*
X133858438Y-106679454D01*
X133919683Y-106411121D01*
X133950500Y-106137617D01*
X133950500Y-105862383D01*
X133919683Y-105588879D01*
X133858438Y-105320546D01*
X133767534Y-105060757D01*
X133648114Y-104812779D01*
X133501681Y-104579732D01*
X133330075Y-104364545D01*
X133135455Y-104169925D01*
X132920268Y-103998319D01*
X132687221Y-103851886D01*
X132687218Y-103851884D01*
X132439246Y-103732467D01*
X132179465Y-103641565D01*
X132179453Y-103641561D01*
X131911124Y-103580317D01*
X131911108Y-103580315D01*
X131637621Y-103549500D01*
X131637617Y-103549500D01*
X131362383Y-103549500D01*
X131362379Y-103549500D01*
X131088891Y-103580315D01*
X131088875Y-103580317D01*
X130820546Y-103641561D01*
X130820534Y-103641565D01*
X130560753Y-103732467D01*
X130312781Y-103851884D01*
X130079733Y-103998318D01*
X129864545Y-104169924D01*
X129669924Y-104364545D01*
X129498318Y-104579733D01*
X129351884Y-104812781D01*
X129232467Y-105060753D01*
X129141565Y-105320534D01*
X129141561Y-105320546D01*
X129080317Y-105588875D01*
X129080315Y-105588891D01*
X129049500Y-105862378D01*
X76986856Y-105862378D01*
X79712416Y-103136819D01*
X79773739Y-103103334D01*
X79800097Y-103100500D01*
X80420234Y-103100500D01*
X80487273Y-103120185D01*
X80489125Y-103121398D01*
X80620814Y-103209390D01*
X80620827Y-103209397D01*
X80766498Y-103269735D01*
X80766503Y-103269737D01*
X80921153Y-103300499D01*
X80921156Y-103300500D01*
X80921158Y-103300500D01*
X81078844Y-103300500D01*
X81078845Y-103300499D01*
X81233497Y-103269737D01*
X81379179Y-103209394D01*
X81510289Y-103121789D01*
X81621789Y-103010289D01*
X81709394Y-102879179D01*
X81769737Y-102733497D01*
X81800500Y-102578842D01*
X81800500Y-102421158D01*
X81800500Y-102421155D01*
X81800499Y-102421153D01*
X81769738Y-102266510D01*
X81769737Y-102266503D01*
X81713728Y-102131284D01*
X81709397Y-102120827D01*
X81709390Y-102120814D01*
X81621789Y-101989711D01*
X81621786Y-101989707D01*
X81510292Y-101878213D01*
X81510288Y-101878210D01*
X81379185Y-101790609D01*
X81379172Y-101790602D01*
X81233501Y-101730264D01*
X81233489Y-101730261D01*
X81078845Y-101699500D01*
X81078842Y-101699500D01*
X80921158Y-101699500D01*
X80921155Y-101699500D01*
X80766510Y-101730261D01*
X80766498Y-101730264D01*
X80620827Y-101790602D01*
X80620814Y-101790609D01*
X80489125Y-101878602D01*
X80422447Y-101899480D01*
X80420234Y-101899500D01*
X79420940Y-101899500D01*
X79380019Y-101910464D01*
X79380019Y-101910465D01*
X79342751Y-101920451D01*
X79268214Y-101940423D01*
X79268209Y-101940426D01*
X79131290Y-102019475D01*
X79131282Y-102019481D01*
X71485339Y-109665425D01*
X71424016Y-109698910D01*
X71421850Y-109699361D01*
X71266508Y-109730261D01*
X71266498Y-109730264D01*
X71120827Y-109790602D01*
X71120814Y-109790609D01*
X70989711Y-109878210D01*
X70989707Y-109878213D01*
X70878213Y-109989707D01*
X70878210Y-109989711D01*
X70790609Y-110120814D01*
X70790602Y-110120827D01*
X70730264Y-110266498D01*
X70730261Y-110266510D01*
X70699500Y-110421153D01*
X57925500Y-110421153D01*
X57925500Y-110408846D01*
X57925500Y-110408843D01*
X57889934Y-110230047D01*
X57889933Y-110230046D01*
X57889933Y-110230042D01*
X57874069Y-110191743D01*
X57820168Y-110061612D01*
X57820166Y-110061608D01*
X57718886Y-109910032D01*
X57718880Y-109910024D01*
X57589975Y-109781119D01*
X57589967Y-109781113D01*
X57438391Y-109679833D01*
X57438387Y-109679831D01*
X57269962Y-109610068D01*
X57269952Y-109610065D01*
X57091156Y-109574500D01*
X57091154Y-109574500D01*
X56908846Y-109574500D01*
X56908844Y-109574500D01*
X56730047Y-109610065D01*
X56730037Y-109610068D01*
X56561612Y-109679831D01*
X56561608Y-109679833D01*
X56410032Y-109781113D01*
X56410024Y-109781119D01*
X56281119Y-109910024D01*
X56281113Y-109910032D01*
X56227602Y-109990118D01*
X56173990Y-110034924D01*
X56104665Y-110043631D01*
X56041638Y-110013477D01*
X56004918Y-109954034D01*
X56000500Y-109921228D01*
X56000500Y-106921153D01*
X67199500Y-106921153D01*
X67199500Y-107078846D01*
X67230261Y-107233489D01*
X67230264Y-107233501D01*
X67290602Y-107379172D01*
X67290609Y-107379185D01*
X67378210Y-107510288D01*
X67378213Y-107510292D01*
X67489707Y-107621786D01*
X67489711Y-107621789D01*
X67620814Y-107709390D01*
X67620827Y-107709397D01*
X67766498Y-107769735D01*
X67766503Y-107769737D01*
X67921153Y-107800499D01*
X67921156Y-107800500D01*
X67921158Y-107800500D01*
X68078844Y-107800500D01*
X68078845Y-107800499D01*
X68233497Y-107769737D01*
X68379179Y-107709394D01*
X68510289Y-107621789D01*
X68621789Y-107510289D01*
X68709394Y-107379179D01*
X68769737Y-107233497D01*
X68797823Y-107092299D01*
X68800638Y-107078150D01*
X68833023Y-107016239D01*
X68834518Y-107014716D01*
X76858506Y-98990727D01*
X76858511Y-98990724D01*
X76868714Y-98980520D01*
X76868716Y-98980520D01*
X76980520Y-98868716D01*
X77037665Y-98769737D01*
X77059577Y-98731785D01*
X77100500Y-98579058D01*
X77100500Y-98579049D01*
X77101561Y-98570998D01*
X77103017Y-98571189D01*
X77120185Y-98512726D01*
X77121398Y-98510874D01*
X77209390Y-98379185D01*
X77209390Y-98379184D01*
X77209394Y-98379179D01*
X77269737Y-98233497D01*
X77295168Y-98105646D01*
X87507000Y-98105646D01*
X87507000Y-98334353D01*
X87542778Y-98560246D01*
X87542778Y-98560249D01*
X87613450Y-98777755D01*
X87613452Y-98777758D01*
X87717283Y-98981538D01*
X87851714Y-99166566D01*
X88013434Y-99328286D01*
X88198462Y-99462717D01*
X88402242Y-99566548D01*
X88402244Y-99566549D01*
X88619751Y-99637221D01*
X88619752Y-99637221D01*
X88619755Y-99637222D01*
X88845646Y-99673000D01*
X88845647Y-99673000D01*
X89074353Y-99673000D01*
X89074354Y-99673000D01*
X89300245Y-99637222D01*
X89300248Y-99637221D01*
X89300249Y-99637221D01*
X89517755Y-99566549D01*
X89517755Y-99566548D01*
X89517758Y-99566548D01*
X89721538Y-99462717D01*
X89906566Y-99328286D01*
X90068286Y-99166566D01*
X90202717Y-98981538D01*
X90306548Y-98777758D01*
X90309155Y-98769734D01*
X90377221Y-98560249D01*
X90377221Y-98560248D01*
X90377222Y-98560245D01*
X90413000Y-98334354D01*
X90413000Y-98105646D01*
X92587000Y-98105646D01*
X92587000Y-98334353D01*
X92622778Y-98560246D01*
X92622778Y-98560249D01*
X92693450Y-98777755D01*
X92693452Y-98777758D01*
X92797283Y-98981538D01*
X92931714Y-99166566D01*
X93093434Y-99328286D01*
X93278462Y-99462717D01*
X93482242Y-99566548D01*
X93482244Y-99566549D01*
X93699751Y-99637221D01*
X93699752Y-99637221D01*
X93699755Y-99637222D01*
X93925646Y-99673000D01*
X93925647Y-99673000D01*
X94154353Y-99673000D01*
X94154354Y-99673000D01*
X94380245Y-99637222D01*
X94380248Y-99637221D01*
X94380249Y-99637221D01*
X94597755Y-99566549D01*
X94597755Y-99566548D01*
X94597758Y-99566548D01*
X94801538Y-99462717D01*
X94986566Y-99328286D01*
X95148286Y-99166566D01*
X95282717Y-98981538D01*
X95386548Y-98777758D01*
X95389155Y-98769734D01*
X95457221Y-98560249D01*
X95457221Y-98560248D01*
X95457222Y-98560245D01*
X95493000Y-98334354D01*
X95493000Y-98308500D01*
X108545050Y-98308500D01*
X108561849Y-98319725D01*
X108561855Y-98319728D01*
X108730182Y-98389451D01*
X108730194Y-98389454D01*
X108908890Y-98424999D01*
X108908894Y-98425000D01*
X109091106Y-98425000D01*
X109091109Y-98424999D01*
X109269805Y-98389454D01*
X109269813Y-98389452D01*
X109438151Y-98319724D01*
X109438154Y-98319723D01*
X109454947Y-98308500D01*
X109454948Y-98308500D01*
X109000001Y-97853553D01*
X109000000Y-97853553D01*
X108545050Y-98308500D01*
X95493000Y-98308500D01*
X95493000Y-98105646D01*
X95457222Y-97879755D01*
X95457221Y-97879751D01*
X95457221Y-97879750D01*
X95386549Y-97662244D01*
X95386548Y-97662242D01*
X95282717Y-97458462D01*
X95148286Y-97273434D01*
X94986566Y-97111714D01*
X94801538Y-96977283D01*
X94792865Y-96972864D01*
X94597755Y-96873450D01*
X94380248Y-96802778D01*
X94210826Y-96775944D01*
X94154354Y-96767000D01*
X93925646Y-96767000D01*
X93850349Y-96778926D01*
X93699753Y-96802778D01*
X93699750Y-96802778D01*
X93482244Y-96873450D01*
X93278461Y-96977283D01*
X93202487Y-97032482D01*
X93093434Y-97111714D01*
X93093432Y-97111716D01*
X93093431Y-97111716D01*
X92931716Y-97273431D01*
X92931716Y-97273432D01*
X92931714Y-97273434D01*
X92925094Y-97282546D01*
X92797283Y-97458461D01*
X92693450Y-97662244D01*
X92622778Y-97879750D01*
X92622778Y-97879753D01*
X92587000Y-98105646D01*
X90413000Y-98105646D01*
X90377222Y-97879755D01*
X90377221Y-97879751D01*
X90377221Y-97879750D01*
X90306549Y-97662244D01*
X90306548Y-97662242D01*
X90202717Y-97458462D01*
X90068286Y-97273434D01*
X89906566Y-97111714D01*
X89721538Y-96977283D01*
X89712865Y-96972864D01*
X89517755Y-96873450D01*
X89300248Y-96802778D01*
X89130826Y-96775944D01*
X89074354Y-96767000D01*
X88845646Y-96767000D01*
X88770349Y-96778926D01*
X88619753Y-96802778D01*
X88619750Y-96802778D01*
X88402244Y-96873450D01*
X88198461Y-96977283D01*
X88122487Y-97032482D01*
X88013434Y-97111714D01*
X88013432Y-97111716D01*
X88013431Y-97111716D01*
X87851716Y-97273431D01*
X87851716Y-97273432D01*
X87851714Y-97273434D01*
X87845094Y-97282546D01*
X87717283Y-97458461D01*
X87613450Y-97662244D01*
X87542778Y-97879750D01*
X87542778Y-97879753D01*
X87507000Y-98105646D01*
X77295168Y-98105646D01*
X77300500Y-98078842D01*
X77300500Y-97921158D01*
X77300500Y-97921155D01*
X77300499Y-97921153D01*
X77270395Y-97769813D01*
X77269737Y-97766503D01*
X77262901Y-97750000D01*
X77209397Y-97620827D01*
X77209390Y-97620814D01*
X77121789Y-97489711D01*
X77121786Y-97489707D01*
X77010292Y-97378213D01*
X77010288Y-97378210D01*
X76879185Y-97290609D01*
X76879172Y-97290602D01*
X76733501Y-97230264D01*
X76733489Y-97230261D01*
X76578845Y-97199500D01*
X76578842Y-97199500D01*
X76421158Y-97199500D01*
X76421155Y-97199500D01*
X76266510Y-97230261D01*
X76266498Y-97230264D01*
X76120827Y-97290602D01*
X76120814Y-97290609D01*
X75989711Y-97378210D01*
X75989707Y-97378213D01*
X75878213Y-97489707D01*
X75878210Y-97489711D01*
X75790609Y-97620814D01*
X75790602Y-97620827D01*
X75730264Y-97766498D01*
X75730261Y-97766510D01*
X75699500Y-97921153D01*
X75699500Y-98078846D01*
X75730261Y-98233489D01*
X75730264Y-98233501D01*
X75753328Y-98289182D01*
X75760797Y-98358651D01*
X75729522Y-98421130D01*
X75726448Y-98424315D01*
X67985339Y-106165425D01*
X67924016Y-106198910D01*
X67921850Y-106199361D01*
X67766508Y-106230261D01*
X67766498Y-106230264D01*
X67620827Y-106290602D01*
X67620814Y-106290609D01*
X67489711Y-106378210D01*
X67489707Y-106378213D01*
X67378213Y-106489707D01*
X67378210Y-106489711D01*
X67290609Y-106620814D01*
X67290602Y-106620827D01*
X67230264Y-106766498D01*
X67230261Y-106766510D01*
X67199500Y-106921153D01*
X56000500Y-106921153D01*
X56000500Y-96027135D01*
X108074500Y-96027135D01*
X108074500Y-96972870D01*
X108074501Y-96972876D01*
X108080908Y-97032483D01*
X108116702Y-97128451D01*
X108121686Y-97198143D01*
X108115085Y-97219227D01*
X108110549Y-97230180D01*
X108110545Y-97230190D01*
X108075000Y-97408891D01*
X108075000Y-97591109D01*
X108110545Y-97769805D01*
X108110548Y-97769817D01*
X108180271Y-97938145D01*
X108191498Y-97954947D01*
X108684627Y-97461818D01*
X108711554Y-97447114D01*
X108737373Y-97430522D01*
X108743573Y-97429630D01*
X108745950Y-97428333D01*
X108759699Y-97426854D01*
X108750000Y-97450272D01*
X108750000Y-97549728D01*
X108788060Y-97641614D01*
X108858386Y-97711940D01*
X108950272Y-97750000D01*
X109049728Y-97750000D01*
X109141614Y-97711940D01*
X109211940Y-97641614D01*
X109250000Y-97549728D01*
X109250000Y-97450272D01*
X109241407Y-97429526D01*
X109294730Y-97445184D01*
X109315372Y-97461818D01*
X109808500Y-97954948D01*
X109819724Y-97938152D01*
X109819724Y-97938151D01*
X109889452Y-97769813D01*
X109889454Y-97769805D01*
X109924999Y-97591109D01*
X109925000Y-97591106D01*
X109925000Y-97408894D01*
X109924999Y-97408890D01*
X109889454Y-97230194D01*
X109889451Y-97230182D01*
X109884917Y-97219235D01*
X109877450Y-97149766D01*
X109883297Y-97128452D01*
X109919091Y-97032482D01*
X109925500Y-96972873D01*
X109925499Y-96027128D01*
X109919091Y-95967517D01*
X109868796Y-95832669D01*
X109868795Y-95832668D01*
X109868793Y-95832664D01*
X109782547Y-95717455D01*
X109782544Y-95717452D01*
X109667335Y-95631206D01*
X109667328Y-95631202D01*
X109532482Y-95580908D01*
X109532483Y-95580908D01*
X109472883Y-95574501D01*
X109472881Y-95574500D01*
X109472873Y-95574500D01*
X109472864Y-95574500D01*
X108527129Y-95574500D01*
X108527123Y-95574501D01*
X108467516Y-95580908D01*
X108332671Y-95631202D01*
X108332664Y-95631206D01*
X108217455Y-95717452D01*
X108217452Y-95717455D01*
X108131206Y-95832664D01*
X108131202Y-95832671D01*
X108080908Y-95967517D01*
X108074501Y-96027116D01*
X108074501Y-96027123D01*
X108074500Y-96027135D01*
X56000500Y-96027135D01*
X56000500Y-40624500D01*
X56020185Y-40557461D01*
X56072989Y-40511706D01*
X56124500Y-40500500D01*
X188875500Y-40500500D01*
X188942539Y-40520185D01*
G37*
%TD.AperFunction*%
%TD*%
M02*
