%TF.GenerationSoftware,KiCad,Pcbnew,9.0.6*%
%TF.CreationDate,2026-02-02T21:59:20-08:00*%
%TF.ProjectId,Museum,4d757365-756d-42e6-9b69-6361645f7063,rev?*%
%TF.SameCoordinates,Original*%
%TF.FileFunction,Soldermask,Top*%
%TF.FilePolarity,Negative*%
%FSLAX46Y46*%
G04 Gerber Fmt 4.6, Leading zero omitted, Abs format (unit mm)*
G04 Created by KiCad (PCBNEW 9.0.6) date 2026-02-02 21:59:20*
%MOMM*%
%LPD*%
G01*
G04 APERTURE LIST*
G04 Aperture macros list*
%AMRoundRect*
0 Rectangle with rounded corners*
0 $1 Rounding radius*
0 $2 $3 $4 $5 $6 $7 $8 $9 X,Y pos of 4 corners*
0 Add a 4 corners polygon primitive as box body*
4,1,4,$2,$3,$4,$5,$6,$7,$8,$9,$2,$3,0*
0 Add four circle primitives for the rounded corners*
1,1,$1+$1,$2,$3*
1,1,$1+$1,$4,$5*
1,1,$1+$1,$6,$7*
1,1,$1+$1,$8,$9*
0 Add four rect primitives between the rounded corners*
20,1,$1+$1,$2,$3,$4,$5,0*
20,1,$1+$1,$4,$5,$6,$7,0*
20,1,$1+$1,$6,$7,$8,$9,0*
20,1,$1+$1,$8,$9,$2,$3,0*%
G04 Aperture macros list end*
%ADD10C,1.700000*%
%ADD11R,0.850000X0.850000*%
%ADD12C,0.850000*%
%ADD13RoundRect,0.102000X-0.500000X0.750000X-0.500000X-0.750000X0.500000X-0.750000X0.500000X0.750000X0*%
%ADD14C,1.905000*%
%ADD15O,3.556000X1.778000*%
G04 APERTURE END LIST*
D10*
%TO.C,M1*%
X142930000Y-112190000D03*
X142930000Y-119810000D03*
X120070000Y-119810000D03*
X120070000Y-112190000D03*
%TD*%
D11*
%TO.C,J3*%
X109000000Y-96500000D03*
D12*
X109000000Y-97500000D03*
%TD*%
D11*
%TO.C,J2*%
X109500000Y-133500000D03*
D12*
X110500000Y-133500000D03*
%TD*%
D11*
%TO.C,J1*%
X57000000Y-111500000D03*
D12*
X57000000Y-110500000D03*
%TD*%
D13*
%TO.C,D5*%
X184500000Y-77900000D03*
X184500000Y-73000000D03*
X187700000Y-77900000D03*
X187700000Y-73000000D03*
%TD*%
%TO.C,D3*%
X78400000Y-70600000D03*
X78400000Y-75500000D03*
X75200000Y-70600000D03*
X75200000Y-75500000D03*
%TD*%
%TO.C,D2*%
X109700000Y-48000000D03*
X109700000Y-52900000D03*
X106500000Y-48000000D03*
X106500000Y-52900000D03*
%TD*%
%TO.C,D1*%
X151700000Y-48000000D03*
X151700000Y-52900000D03*
X148500000Y-48000000D03*
X148500000Y-52900000D03*
%TD*%
D14*
%TO.C,U3*%
X88960000Y-98220000D03*
X94040000Y-98220000D03*
D15*
X83118000Y-123620000D03*
X83118000Y-121080000D03*
X83118000Y-118540000D03*
X83118000Y-116000000D03*
X83118000Y-113460000D03*
X83118000Y-110920000D03*
X83118000Y-108380000D03*
X99882000Y-108380000D03*
X99882000Y-110920000D03*
X99882000Y-113460000D03*
X99882000Y-116000000D03*
X99882000Y-118540000D03*
X99882000Y-121080000D03*
X99882000Y-123620000D03*
%TD*%
M02*
