%TF.GenerationSoftware,KiCad,Pcbnew,9.0.6*%
%TF.CreationDate,2026-02-02T21:59:20-08:00*%
%TF.ProjectId,Museum,4d757365-756d-42e6-9b69-6361645f7063,rev?*%
%TF.SameCoordinates,Original*%
%TF.FileFunction,Legend,Top*%
%TF.FilePolarity,Positive*%
%FSLAX46Y46*%
G04 Gerber Fmt 4.6, Leading zero omitted, Abs format (unit mm)*
G04 Created by KiCad (PCBNEW 9.0.6) date 2026-02-02 21:59:20*
%MOMM*%
%LPD*%
G01*
G04 APERTURE LIST*
%ADD10C,0.100000*%
%ADD11C,0.150000*%
%ADD12C,0.120000*%
%ADD13C,0.127000*%
%ADD14C,0.200000*%
G04 APERTURE END LIST*
D10*
X129420476Y-97407419D02*
X129420476Y-96407419D01*
X129420476Y-96407419D02*
X129753809Y-97121704D01*
X129753809Y-97121704D02*
X130087142Y-96407419D01*
X130087142Y-96407419D02*
X130087142Y-97407419D01*
X131087142Y-97407419D02*
X130515714Y-97407419D01*
X130801428Y-97407419D02*
X130801428Y-96407419D01*
X130801428Y-96407419D02*
X130706190Y-96550276D01*
X130706190Y-96550276D02*
X130610952Y-96645514D01*
X130610952Y-96645514D02*
X130515714Y-96693133D01*
D11*
X108736666Y-93754819D02*
X108736666Y-94469104D01*
X108736666Y-94469104D02*
X108689047Y-94611961D01*
X108689047Y-94611961D02*
X108593809Y-94707200D01*
X108593809Y-94707200D02*
X108450952Y-94754819D01*
X108450952Y-94754819D02*
X108355714Y-94754819D01*
X109117619Y-93754819D02*
X109736666Y-93754819D01*
X109736666Y-93754819D02*
X109403333Y-94135771D01*
X109403333Y-94135771D02*
X109546190Y-94135771D01*
X109546190Y-94135771D02*
X109641428Y-94183390D01*
X109641428Y-94183390D02*
X109689047Y-94231009D01*
X109689047Y-94231009D02*
X109736666Y-94326247D01*
X109736666Y-94326247D02*
X109736666Y-94564342D01*
X109736666Y-94564342D02*
X109689047Y-94659580D01*
X109689047Y-94659580D02*
X109641428Y-94707200D01*
X109641428Y-94707200D02*
X109546190Y-94754819D01*
X109546190Y-94754819D02*
X109260476Y-94754819D01*
X109260476Y-94754819D02*
X109165238Y-94707200D01*
X109165238Y-94707200D02*
X109117619Y-94659580D01*
X106754819Y-133933333D02*
X107469104Y-133933333D01*
X107469104Y-133933333D02*
X107611961Y-133980952D01*
X107611961Y-133980952D02*
X107707200Y-134076190D01*
X107707200Y-134076190D02*
X107754819Y-134219047D01*
X107754819Y-134219047D02*
X107754819Y-134314285D01*
X106850057Y-133504761D02*
X106802438Y-133457142D01*
X106802438Y-133457142D02*
X106754819Y-133361904D01*
X106754819Y-133361904D02*
X106754819Y-133123809D01*
X106754819Y-133123809D02*
X106802438Y-133028571D01*
X106802438Y-133028571D02*
X106850057Y-132980952D01*
X106850057Y-132980952D02*
X106945295Y-132933333D01*
X106945295Y-132933333D02*
X107040533Y-132933333D01*
X107040533Y-132933333D02*
X107183390Y-132980952D01*
X107183390Y-132980952D02*
X107754819Y-133552380D01*
X107754819Y-133552380D02*
X107754819Y-132933333D01*
X56956666Y-113204819D02*
X56956666Y-113919104D01*
X56956666Y-113919104D02*
X56909047Y-114061961D01*
X56909047Y-114061961D02*
X56813809Y-114157200D01*
X56813809Y-114157200D02*
X56670952Y-114204819D01*
X56670952Y-114204819D02*
X56575714Y-114204819D01*
X57956666Y-114204819D02*
X57385238Y-114204819D01*
X57670952Y-114204819D02*
X57670952Y-113204819D01*
X57670952Y-113204819D02*
X57575714Y-113347676D01*
X57575714Y-113347676D02*
X57480476Y-113442914D01*
X57480476Y-113442914D02*
X57385238Y-113490533D01*
X190189819Y-75863094D02*
X189189819Y-75863094D01*
X189189819Y-75863094D02*
X189189819Y-75624999D01*
X189189819Y-75624999D02*
X189237438Y-75482142D01*
X189237438Y-75482142D02*
X189332676Y-75386904D01*
X189332676Y-75386904D02*
X189427914Y-75339285D01*
X189427914Y-75339285D02*
X189618390Y-75291666D01*
X189618390Y-75291666D02*
X189761247Y-75291666D01*
X189761247Y-75291666D02*
X189951723Y-75339285D01*
X189951723Y-75339285D02*
X190046961Y-75386904D01*
X190046961Y-75386904D02*
X190142200Y-75482142D01*
X190142200Y-75482142D02*
X190189819Y-75624999D01*
X190189819Y-75624999D02*
X190189819Y-75863094D01*
X189189819Y-74386904D02*
X189189819Y-74863094D01*
X189189819Y-74863094D02*
X189666009Y-74910713D01*
X189666009Y-74910713D02*
X189618390Y-74863094D01*
X189618390Y-74863094D02*
X189570771Y-74767856D01*
X189570771Y-74767856D02*
X189570771Y-74529761D01*
X189570771Y-74529761D02*
X189618390Y-74434523D01*
X189618390Y-74434523D02*
X189666009Y-74386904D01*
X189666009Y-74386904D02*
X189761247Y-74339285D01*
X189761247Y-74339285D02*
X189999342Y-74339285D01*
X189999342Y-74339285D02*
X190094580Y-74386904D01*
X190094580Y-74386904D02*
X190142200Y-74434523D01*
X190142200Y-74434523D02*
X190189819Y-74529761D01*
X190189819Y-74529761D02*
X190189819Y-74767856D01*
X190189819Y-74767856D02*
X190142200Y-74863094D01*
X190142200Y-74863094D02*
X190094580Y-74910713D01*
X80889819Y-73463094D02*
X79889819Y-73463094D01*
X79889819Y-73463094D02*
X79889819Y-73224999D01*
X79889819Y-73224999D02*
X79937438Y-73082142D01*
X79937438Y-73082142D02*
X80032676Y-72986904D01*
X80032676Y-72986904D02*
X80127914Y-72939285D01*
X80127914Y-72939285D02*
X80318390Y-72891666D01*
X80318390Y-72891666D02*
X80461247Y-72891666D01*
X80461247Y-72891666D02*
X80651723Y-72939285D01*
X80651723Y-72939285D02*
X80746961Y-72986904D01*
X80746961Y-72986904D02*
X80842200Y-73082142D01*
X80842200Y-73082142D02*
X80889819Y-73224999D01*
X80889819Y-73224999D02*
X80889819Y-73463094D01*
X79889819Y-72558332D02*
X79889819Y-71939285D01*
X79889819Y-71939285D02*
X80270771Y-72272618D01*
X80270771Y-72272618D02*
X80270771Y-72129761D01*
X80270771Y-72129761D02*
X80318390Y-72034523D01*
X80318390Y-72034523D02*
X80366009Y-71986904D01*
X80366009Y-71986904D02*
X80461247Y-71939285D01*
X80461247Y-71939285D02*
X80699342Y-71939285D01*
X80699342Y-71939285D02*
X80794580Y-71986904D01*
X80794580Y-71986904D02*
X80842200Y-72034523D01*
X80842200Y-72034523D02*
X80889819Y-72129761D01*
X80889819Y-72129761D02*
X80889819Y-72415475D01*
X80889819Y-72415475D02*
X80842200Y-72510713D01*
X80842200Y-72510713D02*
X80794580Y-72558332D01*
X112189819Y-50863094D02*
X111189819Y-50863094D01*
X111189819Y-50863094D02*
X111189819Y-50624999D01*
X111189819Y-50624999D02*
X111237438Y-50482142D01*
X111237438Y-50482142D02*
X111332676Y-50386904D01*
X111332676Y-50386904D02*
X111427914Y-50339285D01*
X111427914Y-50339285D02*
X111618390Y-50291666D01*
X111618390Y-50291666D02*
X111761247Y-50291666D01*
X111761247Y-50291666D02*
X111951723Y-50339285D01*
X111951723Y-50339285D02*
X112046961Y-50386904D01*
X112046961Y-50386904D02*
X112142200Y-50482142D01*
X112142200Y-50482142D02*
X112189819Y-50624999D01*
X112189819Y-50624999D02*
X112189819Y-50863094D01*
X111285057Y-49910713D02*
X111237438Y-49863094D01*
X111237438Y-49863094D02*
X111189819Y-49767856D01*
X111189819Y-49767856D02*
X111189819Y-49529761D01*
X111189819Y-49529761D02*
X111237438Y-49434523D01*
X111237438Y-49434523D02*
X111285057Y-49386904D01*
X111285057Y-49386904D02*
X111380295Y-49339285D01*
X111380295Y-49339285D02*
X111475533Y-49339285D01*
X111475533Y-49339285D02*
X111618390Y-49386904D01*
X111618390Y-49386904D02*
X112189819Y-49958332D01*
X112189819Y-49958332D02*
X112189819Y-49339285D01*
X154189819Y-50863094D02*
X153189819Y-50863094D01*
X153189819Y-50863094D02*
X153189819Y-50624999D01*
X153189819Y-50624999D02*
X153237438Y-50482142D01*
X153237438Y-50482142D02*
X153332676Y-50386904D01*
X153332676Y-50386904D02*
X153427914Y-50339285D01*
X153427914Y-50339285D02*
X153618390Y-50291666D01*
X153618390Y-50291666D02*
X153761247Y-50291666D01*
X153761247Y-50291666D02*
X153951723Y-50339285D01*
X153951723Y-50339285D02*
X154046961Y-50386904D01*
X154046961Y-50386904D02*
X154142200Y-50482142D01*
X154142200Y-50482142D02*
X154189819Y-50624999D01*
X154189819Y-50624999D02*
X154189819Y-50863094D01*
X154189819Y-49339285D02*
X154189819Y-49910713D01*
X154189819Y-49624999D02*
X153189819Y-49624999D01*
X153189819Y-49624999D02*
X153332676Y-49720237D01*
X153332676Y-49720237D02*
X153427914Y-49815475D01*
X153427914Y-49815475D02*
X153475533Y-49910713D01*
D10*
X90991904Y-130742580D02*
X90991904Y-129933057D01*
X90991904Y-129933057D02*
X90944285Y-129837819D01*
X90944285Y-129837819D02*
X90896666Y-129790200D01*
X90896666Y-129790200D02*
X90801428Y-129742580D01*
X90801428Y-129742580D02*
X90610952Y-129742580D01*
X90610952Y-129742580D02*
X90515714Y-129790200D01*
X90515714Y-129790200D02*
X90468095Y-129837819D01*
X90468095Y-129837819D02*
X90420476Y-129933057D01*
X90420476Y-129933057D02*
X90420476Y-130742580D01*
X90039523Y-130742580D02*
X89420476Y-130742580D01*
X89420476Y-130742580D02*
X89753809Y-130361628D01*
X89753809Y-130361628D02*
X89610952Y-130361628D01*
X89610952Y-130361628D02*
X89515714Y-130314009D01*
X89515714Y-130314009D02*
X89468095Y-130266390D01*
X89468095Y-130266390D02*
X89420476Y-130171152D01*
X89420476Y-130171152D02*
X89420476Y-129933057D01*
X89420476Y-129933057D02*
X89468095Y-129837819D01*
X89468095Y-129837819D02*
X89515714Y-129790200D01*
X89515714Y-129790200D02*
X89610952Y-129742580D01*
X89610952Y-129742580D02*
X89896666Y-129742580D01*
X89896666Y-129742580D02*
X89991904Y-129790200D01*
X89991904Y-129790200D02*
X90039523Y-129837819D01*
D12*
%TO.C,J3*%
X108255000Y-95765000D02*
X109000000Y-95765000D01*
X108255000Y-96500000D02*
X108255000Y-95765000D01*
X108255000Y-97235000D02*
X108255000Y-98110000D01*
X108255000Y-97235000D02*
X108314435Y-97235000D01*
X108255000Y-98110000D02*
X108589970Y-98110000D01*
X109410030Y-98110000D02*
X109745000Y-98110000D01*
X109685565Y-97235000D02*
X109745000Y-97235000D01*
X109745000Y-97235000D02*
X109745000Y-98110000D01*
%TO.C,J2*%
X108765000Y-134245000D02*
X108765000Y-133500000D01*
X109500000Y-134245000D02*
X108765000Y-134245000D01*
X110235000Y-134245000D02*
X111110000Y-134245000D01*
X110235000Y-134245000D02*
X110235000Y-134185565D01*
X111110000Y-134245000D02*
X111110000Y-133910030D01*
X111110000Y-133089970D02*
X111110000Y-132755000D01*
X110235000Y-132814435D02*
X110235000Y-132755000D01*
X110235000Y-132755000D02*
X111110000Y-132755000D01*
%TO.C,J1*%
X58100000Y-111000000D02*
X58100000Y-109690000D01*
X58100000Y-111000000D02*
X57685000Y-111000000D01*
X58100000Y-109690000D02*
X56480000Y-109690000D01*
X57000000Y-112310000D02*
X56315000Y-112310000D01*
X56480000Y-110054102D02*
X56480000Y-109690000D01*
X56315000Y-112310000D02*
X56315000Y-111500000D01*
D13*
%TO.C,D5*%
X185313500Y-77950000D02*
X186886500Y-77950000D01*
X185313500Y-72950000D02*
X186886500Y-72950000D01*
D14*
X187800000Y-71700000D02*
G75*
G02*
X187600000Y-71700000I-100000J0D01*
G01*
X187600000Y-71700000D02*
G75*
G02*
X187800000Y-71700000I100000J0D01*
G01*
D13*
X188600000Y-77950000D02*
X188600000Y-72950000D01*
X183600000Y-72950000D02*
X183600000Y-77950000D01*
%TO.C,D3*%
X74300000Y-70550000D02*
X74300000Y-75550000D01*
X79300000Y-75550000D02*
X79300000Y-70550000D01*
D14*
X78500000Y-69300000D02*
G75*
G02*
X78300000Y-69300000I-100000J0D01*
G01*
X78300000Y-69300000D02*
G75*
G02*
X78500000Y-69300000I100000J0D01*
G01*
D13*
X76013500Y-70550000D02*
X77586500Y-70550000D01*
X76013500Y-75550000D02*
X77586500Y-75550000D01*
%TO.C,D2*%
X105600000Y-47950000D02*
X105600000Y-52950000D01*
X110600000Y-52950000D02*
X110600000Y-47950000D01*
D14*
X109800000Y-46700000D02*
G75*
G02*
X109600000Y-46700000I-100000J0D01*
G01*
X109600000Y-46700000D02*
G75*
G02*
X109800000Y-46700000I100000J0D01*
G01*
D13*
X107313500Y-47950000D02*
X108886500Y-47950000D01*
X107313500Y-52950000D02*
X108886500Y-52950000D01*
%TO.C,D1*%
X147600000Y-47950000D02*
X147600000Y-52950000D01*
X152600000Y-52950000D02*
X152600000Y-47950000D01*
D14*
X151800000Y-46700000D02*
G75*
G02*
X151600000Y-46700000I-100000J0D01*
G01*
X151600000Y-46700000D02*
G75*
G02*
X151800000Y-46700000I100000J0D01*
G01*
D13*
X149313500Y-47950000D02*
X150886500Y-47950000D01*
X149313500Y-52950000D02*
X150886500Y-52950000D01*
D10*
%TO.C,U3*%
X87436000Y-96696000D02*
X90484000Y-96696000D01*
X87436000Y-99744000D02*
X87436000Y-96696000D01*
X87690000Y-122350000D02*
X87690000Y-126160000D01*
X89468000Y-95680000D02*
X88452000Y-95680000D01*
X89976000Y-96188000D02*
X87944000Y-96188000D01*
X90484000Y-96696000D02*
X90484000Y-99744000D01*
X90484000Y-99744000D02*
X87436000Y-99744000D01*
X95310000Y-122350000D02*
X87690000Y-122350000D01*
X95310000Y-126160000D02*
X95310000Y-122350000D01*
%TD*%
M02*
