%TF.GenerationSoftware,KiCad,Pcbnew,9.0.7*%
%TF.CreationDate,2026-01-29T21:33:16-08:00*%
%TF.ProjectId,Lab3,4c616233-2e6b-4696-9361-645f70636258,rev?*%
%TF.SameCoordinates,Original*%
%TF.FileFunction,Legend,Top*%
%TF.FilePolarity,Positive*%
%FSLAX46Y46*%
G04 Gerber Fmt 4.6, Leading zero omitted, Abs format (unit mm)*
G04 Created by KiCad (PCBNEW 9.0.7) date 2026-01-29 21:33:16*
%MOMM*%
%LPD*%
G01*
G04 APERTURE LIST*
%ADD10C,0.150000*%
%ADD11C,0.000000*%
%ADD12C,0.152400*%
%ADD13C,0.120000*%
G04 APERTURE END LIST*
D10*
X156717904Y-86905180D02*
X156717904Y-86095657D01*
X156717904Y-86095657D02*
X156670285Y-86000419D01*
X156670285Y-86000419D02*
X156622666Y-85952800D01*
X156622666Y-85952800D02*
X156527428Y-85905180D01*
X156527428Y-85905180D02*
X156336952Y-85905180D01*
X156336952Y-85905180D02*
X156241714Y-85952800D01*
X156241714Y-85952800D02*
X156194095Y-86000419D01*
X156194095Y-86000419D02*
X156146476Y-86095657D01*
X156146476Y-86095657D02*
X156146476Y-86905180D01*
X155717904Y-86809942D02*
X155670285Y-86857561D01*
X155670285Y-86857561D02*
X155575047Y-86905180D01*
X155575047Y-86905180D02*
X155336952Y-86905180D01*
X155336952Y-86905180D02*
X155241714Y-86857561D01*
X155241714Y-86857561D02*
X155194095Y-86809942D01*
X155194095Y-86809942D02*
X155146476Y-86714704D01*
X155146476Y-86714704D02*
X155146476Y-86619466D01*
X155146476Y-86619466D02*
X155194095Y-86476609D01*
X155194095Y-86476609D02*
X155765523Y-85905180D01*
X155765523Y-85905180D02*
X155146476Y-85905180D01*
X158038800Y-86814819D02*
X158038800Y-87052914D01*
X157800705Y-86957676D02*
X158038800Y-87052914D01*
X158038800Y-87052914D02*
X158276895Y-86957676D01*
X157895943Y-87243390D02*
X158038800Y-87052914D01*
X158038800Y-87052914D02*
X158181657Y-87243390D01*
X158038799Y-87905180D02*
X158038799Y-87667085D01*
X158276894Y-87762323D02*
X158038799Y-87667085D01*
X158038799Y-87667085D02*
X157800704Y-87762323D01*
X158181656Y-87476609D02*
X158038799Y-87667085D01*
X158038799Y-87667085D02*
X157895942Y-87476609D01*
X166370095Y-88195319D02*
X166370095Y-89004842D01*
X166370095Y-89004842D02*
X166417714Y-89100080D01*
X166417714Y-89100080D02*
X166465333Y-89147700D01*
X166465333Y-89147700D02*
X166560571Y-89195319D01*
X166560571Y-89195319D02*
X166751047Y-89195319D01*
X166751047Y-89195319D02*
X166846285Y-89147700D01*
X166846285Y-89147700D02*
X166893904Y-89100080D01*
X166893904Y-89100080D02*
X166941523Y-89004842D01*
X166941523Y-89004842D02*
X166941523Y-88195319D01*
X167941523Y-89195319D02*
X167370095Y-89195319D01*
X167655809Y-89195319D02*
X167655809Y-88195319D01*
X167655809Y-88195319D02*
X167560571Y-88338176D01*
X167560571Y-88338176D02*
X167465333Y-88433414D01*
X167465333Y-88433414D02*
X167370095Y-88481033D01*
X165658800Y-85594319D02*
X165658800Y-85832414D01*
X165420705Y-85737176D02*
X165658800Y-85832414D01*
X165658800Y-85832414D02*
X165896895Y-85737176D01*
X165515943Y-86022890D02*
X165658800Y-85832414D01*
X165658800Y-85832414D02*
X165801657Y-86022890D01*
X165658800Y-85594319D02*
X165658800Y-85832414D01*
X165420705Y-85737176D02*
X165658800Y-85832414D01*
X165658800Y-85832414D02*
X165896895Y-85737176D01*
X165515943Y-86022890D02*
X165658800Y-85832414D01*
X165658800Y-85832414D02*
X165801657Y-86022890D01*
X155996819Y-91098666D02*
X155520628Y-91431999D01*
X155996819Y-91670094D02*
X154996819Y-91670094D01*
X154996819Y-91670094D02*
X154996819Y-91289142D01*
X154996819Y-91289142D02*
X155044438Y-91193904D01*
X155044438Y-91193904D02*
X155092057Y-91146285D01*
X155092057Y-91146285D02*
X155187295Y-91098666D01*
X155187295Y-91098666D02*
X155330152Y-91098666D01*
X155330152Y-91098666D02*
X155425390Y-91146285D01*
X155425390Y-91146285D02*
X155473009Y-91193904D01*
X155473009Y-91193904D02*
X155520628Y-91289142D01*
X155520628Y-91289142D02*
X155520628Y-91670094D01*
X154996819Y-90193904D02*
X154996819Y-90670094D01*
X154996819Y-90670094D02*
X155473009Y-90717713D01*
X155473009Y-90717713D02*
X155425390Y-90670094D01*
X155425390Y-90670094D02*
X155377771Y-90574856D01*
X155377771Y-90574856D02*
X155377771Y-90336761D01*
X155377771Y-90336761D02*
X155425390Y-90241523D01*
X155425390Y-90241523D02*
X155473009Y-90193904D01*
X155473009Y-90193904D02*
X155568247Y-90146285D01*
X155568247Y-90146285D02*
X155806342Y-90146285D01*
X155806342Y-90146285D02*
X155901580Y-90193904D01*
X155901580Y-90193904D02*
X155949200Y-90241523D01*
X155949200Y-90241523D02*
X155996819Y-90336761D01*
X155996819Y-90336761D02*
X155996819Y-90574856D01*
X155996819Y-90574856D02*
X155949200Y-90670094D01*
X155949200Y-90670094D02*
X155901580Y-90717713D01*
X153456819Y-91098666D02*
X152980628Y-91431999D01*
X153456819Y-91670094D02*
X152456819Y-91670094D01*
X152456819Y-91670094D02*
X152456819Y-91289142D01*
X152456819Y-91289142D02*
X152504438Y-91193904D01*
X152504438Y-91193904D02*
X152552057Y-91146285D01*
X152552057Y-91146285D02*
X152647295Y-91098666D01*
X152647295Y-91098666D02*
X152790152Y-91098666D01*
X152790152Y-91098666D02*
X152885390Y-91146285D01*
X152885390Y-91146285D02*
X152933009Y-91193904D01*
X152933009Y-91193904D02*
X152980628Y-91289142D01*
X152980628Y-91289142D02*
X152980628Y-91670094D01*
X152790152Y-90241523D02*
X153456819Y-90241523D01*
X152409200Y-90479618D02*
X153123485Y-90717713D01*
X153123485Y-90717713D02*
X153123485Y-90098666D01*
X159044819Y-86526666D02*
X158568628Y-86859999D01*
X159044819Y-87098094D02*
X158044819Y-87098094D01*
X158044819Y-87098094D02*
X158044819Y-86717142D01*
X158044819Y-86717142D02*
X158092438Y-86621904D01*
X158092438Y-86621904D02*
X158140057Y-86574285D01*
X158140057Y-86574285D02*
X158235295Y-86526666D01*
X158235295Y-86526666D02*
X158378152Y-86526666D01*
X158378152Y-86526666D02*
X158473390Y-86574285D01*
X158473390Y-86574285D02*
X158521009Y-86621904D01*
X158521009Y-86621904D02*
X158568628Y-86717142D01*
X158568628Y-86717142D02*
X158568628Y-87098094D01*
X158044819Y-86193332D02*
X158044819Y-85574285D01*
X158044819Y-85574285D02*
X158425771Y-85907618D01*
X158425771Y-85907618D02*
X158425771Y-85764761D01*
X158425771Y-85764761D02*
X158473390Y-85669523D01*
X158473390Y-85669523D02*
X158521009Y-85621904D01*
X158521009Y-85621904D02*
X158616247Y-85574285D01*
X158616247Y-85574285D02*
X158854342Y-85574285D01*
X158854342Y-85574285D02*
X158949580Y-85621904D01*
X158949580Y-85621904D02*
X158997200Y-85669523D01*
X158997200Y-85669523D02*
X159044819Y-85764761D01*
X159044819Y-85764761D02*
X159044819Y-86050475D01*
X159044819Y-86050475D02*
X158997200Y-86145713D01*
X158997200Y-86145713D02*
X158949580Y-86193332D01*
X159044819Y-91098666D02*
X158568628Y-91431999D01*
X159044819Y-91670094D02*
X158044819Y-91670094D01*
X158044819Y-91670094D02*
X158044819Y-91289142D01*
X158044819Y-91289142D02*
X158092438Y-91193904D01*
X158092438Y-91193904D02*
X158140057Y-91146285D01*
X158140057Y-91146285D02*
X158235295Y-91098666D01*
X158235295Y-91098666D02*
X158378152Y-91098666D01*
X158378152Y-91098666D02*
X158473390Y-91146285D01*
X158473390Y-91146285D02*
X158521009Y-91193904D01*
X158521009Y-91193904D02*
X158568628Y-91289142D01*
X158568628Y-91289142D02*
X158568628Y-91670094D01*
X158140057Y-90717713D02*
X158092438Y-90670094D01*
X158092438Y-90670094D02*
X158044819Y-90574856D01*
X158044819Y-90574856D02*
X158044819Y-90336761D01*
X158044819Y-90336761D02*
X158092438Y-90241523D01*
X158092438Y-90241523D02*
X158140057Y-90193904D01*
X158140057Y-90193904D02*
X158235295Y-90146285D01*
X158235295Y-90146285D02*
X158330533Y-90146285D01*
X158330533Y-90146285D02*
X158473390Y-90193904D01*
X158473390Y-90193904D02*
X159044819Y-90765332D01*
X159044819Y-90765332D02*
X159044819Y-90146285D01*
X150220819Y-86526666D02*
X149744628Y-86859999D01*
X150220819Y-87098094D02*
X149220819Y-87098094D01*
X149220819Y-87098094D02*
X149220819Y-86717142D01*
X149220819Y-86717142D02*
X149268438Y-86621904D01*
X149268438Y-86621904D02*
X149316057Y-86574285D01*
X149316057Y-86574285D02*
X149411295Y-86526666D01*
X149411295Y-86526666D02*
X149554152Y-86526666D01*
X149554152Y-86526666D02*
X149649390Y-86574285D01*
X149649390Y-86574285D02*
X149697009Y-86621904D01*
X149697009Y-86621904D02*
X149744628Y-86717142D01*
X149744628Y-86717142D02*
X149744628Y-87098094D01*
X150220819Y-85574285D02*
X150220819Y-86145713D01*
X150220819Y-85859999D02*
X149220819Y-85859999D01*
X149220819Y-85859999D02*
X149363676Y-85955237D01*
X149363676Y-85955237D02*
X149458914Y-86050475D01*
X149458914Y-86050475D02*
X149506533Y-86145713D01*
X152354819Y-95233333D02*
X153069104Y-95233333D01*
X153069104Y-95233333D02*
X153211961Y-95280952D01*
X153211961Y-95280952D02*
X153307200Y-95376190D01*
X153307200Y-95376190D02*
X153354819Y-95519047D01*
X153354819Y-95519047D02*
X153354819Y-95614285D01*
X153354819Y-94233333D02*
X153354819Y-94804761D01*
X153354819Y-94519047D02*
X152354819Y-94519047D01*
X152354819Y-94519047D02*
X152497676Y-94614285D01*
X152497676Y-94614285D02*
X152592914Y-94709523D01*
X152592914Y-94709523D02*
X152640533Y-94804761D01*
X147360819Y-91670094D02*
X146360819Y-91670094D01*
X146360819Y-91670094D02*
X146360819Y-91431999D01*
X146360819Y-91431999D02*
X146408438Y-91289142D01*
X146408438Y-91289142D02*
X146503676Y-91193904D01*
X146503676Y-91193904D02*
X146598914Y-91146285D01*
X146598914Y-91146285D02*
X146789390Y-91098666D01*
X146789390Y-91098666D02*
X146932247Y-91098666D01*
X146932247Y-91098666D02*
X147122723Y-91146285D01*
X147122723Y-91146285D02*
X147217961Y-91193904D01*
X147217961Y-91193904D02*
X147313200Y-91289142D01*
X147313200Y-91289142D02*
X147360819Y-91431999D01*
X147360819Y-91431999D02*
X147360819Y-91670094D01*
X147360819Y-90146285D02*
X147360819Y-90717713D01*
X147360819Y-90431999D02*
X146360819Y-90431999D01*
X146360819Y-90431999D02*
X146503676Y-90527237D01*
X146503676Y-90527237D02*
X146598914Y-90622475D01*
X146598914Y-90622475D02*
X146646533Y-90717713D01*
X153173580Y-91098666D02*
X153221200Y-91146285D01*
X153221200Y-91146285D02*
X153268819Y-91289142D01*
X153268819Y-91289142D02*
X153268819Y-91384380D01*
X153268819Y-91384380D02*
X153221200Y-91527237D01*
X153221200Y-91527237D02*
X153125961Y-91622475D01*
X153125961Y-91622475D02*
X153030723Y-91670094D01*
X153030723Y-91670094D02*
X152840247Y-91717713D01*
X152840247Y-91717713D02*
X152697390Y-91717713D01*
X152697390Y-91717713D02*
X152506914Y-91670094D01*
X152506914Y-91670094D02*
X152411676Y-91622475D01*
X152411676Y-91622475D02*
X152316438Y-91527237D01*
X152316438Y-91527237D02*
X152268819Y-91384380D01*
X152268819Y-91384380D02*
X152268819Y-91289142D01*
X152268819Y-91289142D02*
X152316438Y-91146285D01*
X152316438Y-91146285D02*
X152364057Y-91098666D01*
X152602152Y-90241523D02*
X153268819Y-90241523D01*
X152221200Y-90479618D02*
X152935485Y-90717713D01*
X152935485Y-90717713D02*
X152935485Y-90098666D01*
X150313580Y-86526666D02*
X150361200Y-86574285D01*
X150361200Y-86574285D02*
X150408819Y-86717142D01*
X150408819Y-86717142D02*
X150408819Y-86812380D01*
X150408819Y-86812380D02*
X150361200Y-86955237D01*
X150361200Y-86955237D02*
X150265961Y-87050475D01*
X150265961Y-87050475D02*
X150170723Y-87098094D01*
X150170723Y-87098094D02*
X149980247Y-87145713D01*
X149980247Y-87145713D02*
X149837390Y-87145713D01*
X149837390Y-87145713D02*
X149646914Y-87098094D01*
X149646914Y-87098094D02*
X149551676Y-87050475D01*
X149551676Y-87050475D02*
X149456438Y-86955237D01*
X149456438Y-86955237D02*
X149408819Y-86812380D01*
X149408819Y-86812380D02*
X149408819Y-86717142D01*
X149408819Y-86717142D02*
X149456438Y-86574285D01*
X149456438Y-86574285D02*
X149504057Y-86526666D01*
X149408819Y-86193332D02*
X149408819Y-85574285D01*
X149408819Y-85574285D02*
X149789771Y-85907618D01*
X149789771Y-85907618D02*
X149789771Y-85764761D01*
X149789771Y-85764761D02*
X149837390Y-85669523D01*
X149837390Y-85669523D02*
X149885009Y-85621904D01*
X149885009Y-85621904D02*
X149980247Y-85574285D01*
X149980247Y-85574285D02*
X150218342Y-85574285D01*
X150218342Y-85574285D02*
X150313580Y-85621904D01*
X150313580Y-85621904D02*
X150361200Y-85669523D01*
X150361200Y-85669523D02*
X150408819Y-85764761D01*
X150408819Y-85764761D02*
X150408819Y-86050475D01*
X150408819Y-86050475D02*
X150361200Y-86145713D01*
X150361200Y-86145713D02*
X150313580Y-86193332D01*
X161489580Y-86526666D02*
X161537200Y-86574285D01*
X161537200Y-86574285D02*
X161584819Y-86717142D01*
X161584819Y-86717142D02*
X161584819Y-86812380D01*
X161584819Y-86812380D02*
X161537200Y-86955237D01*
X161537200Y-86955237D02*
X161441961Y-87050475D01*
X161441961Y-87050475D02*
X161346723Y-87098094D01*
X161346723Y-87098094D02*
X161156247Y-87145713D01*
X161156247Y-87145713D02*
X161013390Y-87145713D01*
X161013390Y-87145713D02*
X160822914Y-87098094D01*
X160822914Y-87098094D02*
X160727676Y-87050475D01*
X160727676Y-87050475D02*
X160632438Y-86955237D01*
X160632438Y-86955237D02*
X160584819Y-86812380D01*
X160584819Y-86812380D02*
X160584819Y-86717142D01*
X160584819Y-86717142D02*
X160632438Y-86574285D01*
X160632438Y-86574285D02*
X160680057Y-86526666D01*
X160680057Y-86145713D02*
X160632438Y-86098094D01*
X160632438Y-86098094D02*
X160584819Y-86002856D01*
X160584819Y-86002856D02*
X160584819Y-85764761D01*
X160584819Y-85764761D02*
X160632438Y-85669523D01*
X160632438Y-85669523D02*
X160680057Y-85621904D01*
X160680057Y-85621904D02*
X160775295Y-85574285D01*
X160775295Y-85574285D02*
X160870533Y-85574285D01*
X160870533Y-85574285D02*
X161013390Y-85621904D01*
X161013390Y-85621904D02*
X161584819Y-86193332D01*
X161584819Y-86193332D02*
X161584819Y-85574285D01*
X164349580Y-91098666D02*
X164397200Y-91146285D01*
X164397200Y-91146285D02*
X164444819Y-91289142D01*
X164444819Y-91289142D02*
X164444819Y-91384380D01*
X164444819Y-91384380D02*
X164397200Y-91527237D01*
X164397200Y-91527237D02*
X164301961Y-91622475D01*
X164301961Y-91622475D02*
X164206723Y-91670094D01*
X164206723Y-91670094D02*
X164016247Y-91717713D01*
X164016247Y-91717713D02*
X163873390Y-91717713D01*
X163873390Y-91717713D02*
X163682914Y-91670094D01*
X163682914Y-91670094D02*
X163587676Y-91622475D01*
X163587676Y-91622475D02*
X163492438Y-91527237D01*
X163492438Y-91527237D02*
X163444819Y-91384380D01*
X163444819Y-91384380D02*
X163444819Y-91289142D01*
X163444819Y-91289142D02*
X163492438Y-91146285D01*
X163492438Y-91146285D02*
X163540057Y-91098666D01*
X164444819Y-90146285D02*
X164444819Y-90717713D01*
X164444819Y-90431999D02*
X163444819Y-90431999D01*
X163444819Y-90431999D02*
X163587676Y-90527237D01*
X163587676Y-90527237D02*
X163682914Y-90622475D01*
X163682914Y-90622475D02*
X163730533Y-90717713D01*
D11*
%TO.C,U2*%
G36*
X154254200Y-86800500D02*
G01*
X154000200Y-86800500D01*
X154000200Y-86419499D01*
X154254200Y-86419499D01*
X154254200Y-86800500D01*
G37*
D12*
X157632400Y-84937600D02*
X156822780Y-84937600D01*
X154279600Y-84937600D02*
X154279600Y-85243218D01*
X154279600Y-87782400D02*
X155089220Y-87782400D01*
X157632400Y-87782400D02*
X157632400Y-87476782D01*
X157632400Y-85243218D02*
X157632400Y-84937600D01*
X155089220Y-84937600D02*
X154279600Y-84937600D01*
X154279600Y-87476782D02*
X154279600Y-87782400D01*
X156822780Y-87782400D02*
X157632400Y-87782400D01*
%TO.C,U1*%
X166154100Y-90366100D02*
X168109900Y-90366100D01*
X168109900Y-87114900D02*
X166154100Y-87114900D01*
D13*
%TO.C,R5*%
X156449500Y-91186724D02*
X156449500Y-90677276D01*
X157494500Y-91186724D02*
X157494500Y-90677276D01*
%TO.C,R4*%
X153909500Y-91186724D02*
X153909500Y-90677276D01*
X154954500Y-91186724D02*
X154954500Y-90677276D01*
%TO.C,R3*%
X159497500Y-86614724D02*
X159497500Y-86105276D01*
X160542500Y-86614724D02*
X160542500Y-86105276D01*
%TO.C,R2*%
X159497500Y-91186724D02*
X159497500Y-90677276D01*
X160542500Y-91186724D02*
X160542500Y-90677276D01*
%TO.C,R1*%
X148858500Y-86105276D02*
X148858500Y-86614724D01*
X147813500Y-86105276D02*
X147813500Y-86614724D01*
%TO.C,J1*%
X153775000Y-95645000D02*
X153775000Y-94900000D01*
X154510000Y-95645000D02*
X153775000Y-95645000D01*
X155245000Y-95645000D02*
X158120000Y-95645000D01*
X155245000Y-95645000D02*
X155245000Y-95585565D01*
X158120000Y-95645000D02*
X158120000Y-95310030D01*
X158120000Y-94489970D02*
X158120000Y-94155000D01*
X155245000Y-94214435D02*
X155245000Y-94155000D01*
X155245000Y-94155000D02*
X158120000Y-94155000D01*
%TO.C,D1*%
X147601000Y-92592000D02*
X149071000Y-92592000D01*
X149071000Y-92592000D02*
X149071000Y-90132000D01*
X147601000Y-90132000D02*
X147601000Y-92592000D01*
%TO.C,C4*%
X151894000Y-90785733D02*
X151894000Y-91078267D01*
X150874000Y-90785733D02*
X150874000Y-91078267D01*
%TO.C,C3*%
X150874000Y-86506267D02*
X150874000Y-86213733D01*
X151894000Y-86506267D02*
X151894000Y-86213733D01*
%TO.C,C2*%
X162050000Y-86506267D02*
X162050000Y-86213733D01*
X163070000Y-86506267D02*
X163070000Y-86213733D01*
%TO.C,C1*%
X163070000Y-90785733D02*
X163070000Y-91078267D01*
X162050000Y-90785733D02*
X162050000Y-91078267D01*
%TD*%
M02*
