%TF.GenerationSoftware,KiCad,Pcbnew,9.0.7*%
%TF.CreationDate,2026-01-29T21:33:16-08:00*%
%TF.ProjectId,Lab3,4c616233-2e6b-4696-9361-645f70636258,rev?*%
%TF.SameCoordinates,Original*%
%TF.FileFunction,Copper,L2,Bot*%
%TF.FilePolarity,Positive*%
%FSLAX46Y46*%
G04 Gerber Fmt 4.6, Leading zero omitted, Abs format (unit mm)*
G04 Created by KiCad (PCBNEW 9.0.7) date 2026-01-29 21:33:16*
%MOMM*%
%LPD*%
G01*
G04 APERTURE LIST*
%TA.AperFunction,ComponentPad*%
%ADD10R,0.850000X0.850000*%
%TD*%
%TA.AperFunction,ComponentPad*%
%ADD11C,0.850000*%
%TD*%
%TA.AperFunction,ViaPad*%
%ADD12C,0.600000*%
%TD*%
%TA.AperFunction,Conductor*%
%ADD13C,0.200000*%
%TD*%
G04 APERTURE END LIST*
D10*
%TO.P,J1,1,Pin_1*%
%TO.N,GND*%
X154510000Y-94900000D03*
D11*
%TO.P,J1,2,Pin_2*%
%TO.N,/SCL*%
X155510000Y-94900000D03*
%TO.P,J1,3,Pin_3*%
%TO.N,/SDA*%
X156510000Y-94900000D03*
%TO.P,J1,4,Pin_4*%
%TO.N,VCC*%
X157510000Y-94900000D03*
%TD*%
D12*
%TO.N,GND*%
X158496000Y-86360000D03*
%TO.N,/SCL*%
X153670000Y-92710000D03*
X152908000Y-90424000D03*
%TO.N,/SDA*%
X157988000Y-92964000D03*
X158496000Y-90424000D03*
%TD*%
D13*
%TO.N,/SCL*%
X152908000Y-91948000D02*
X152908000Y-90424000D01*
X153670000Y-92710000D02*
X152908000Y-91948000D01*
%TO.N,/SDA*%
X158496000Y-90424000D02*
X158496000Y-92456000D01*
X158496000Y-92456000D02*
X157988000Y-92964000D01*
%TD*%
%TA.AperFunction,Conductor*%
%TO.N,GND*%
G36*
X168184418Y-83304816D02*
G01*
X168384561Y-83319130D01*
X168402063Y-83321647D01*
X168593797Y-83363355D01*
X168610755Y-83368334D01*
X168794609Y-83436909D01*
X168810701Y-83444259D01*
X168982904Y-83538288D01*
X168997784Y-83547849D01*
X169154867Y-83665441D01*
X169168237Y-83677027D01*
X169306972Y-83815762D01*
X169318558Y-83829132D01*
X169436146Y-83986210D01*
X169445711Y-84001095D01*
X169539740Y-84173298D01*
X169547090Y-84189390D01*
X169615662Y-84373236D01*
X169620646Y-84390212D01*
X169662351Y-84581931D01*
X169664869Y-84599442D01*
X169679184Y-84799580D01*
X169679500Y-84808427D01*
X169679500Y-94515572D01*
X169679184Y-94524419D01*
X169664869Y-94724557D01*
X169662351Y-94742068D01*
X169620646Y-94933787D01*
X169615662Y-94950763D01*
X169547090Y-95134609D01*
X169539740Y-95150701D01*
X169445711Y-95322904D01*
X169436146Y-95337789D01*
X169318558Y-95494867D01*
X169306972Y-95508237D01*
X169168237Y-95646972D01*
X169154867Y-95658558D01*
X168997789Y-95776146D01*
X168982904Y-95785711D01*
X168810701Y-95879740D01*
X168794609Y-95887090D01*
X168610763Y-95955662D01*
X168593787Y-95960646D01*
X168402068Y-96002351D01*
X168384557Y-96004869D01*
X168203779Y-96017799D01*
X168184417Y-96019184D01*
X168175572Y-96019500D01*
X157849124Y-96019500D01*
X157782085Y-95999815D01*
X157736330Y-95947011D01*
X157726386Y-95877853D01*
X157755411Y-95814297D01*
X157801672Y-95780939D01*
X157948387Y-95720168D01*
X157948391Y-95720166D01*
X158048544Y-95653246D01*
X158099972Y-95618883D01*
X158228883Y-95489972D01*
X158330167Y-95338389D01*
X158399933Y-95169958D01*
X158435500Y-94991154D01*
X158435500Y-94808846D01*
X158435500Y-94808843D01*
X158399934Y-94630047D01*
X158399933Y-94630046D01*
X158399933Y-94630042D01*
X158356183Y-94524419D01*
X158330168Y-94461612D01*
X158330166Y-94461608D01*
X158228886Y-94310032D01*
X158228880Y-94310024D01*
X158099975Y-94181119D01*
X158099967Y-94181113D01*
X157948391Y-94079833D01*
X157948387Y-94079831D01*
X157779962Y-94010068D01*
X157779952Y-94010065D01*
X157601156Y-93974500D01*
X157601154Y-93974500D01*
X157418846Y-93974500D01*
X157418844Y-93974500D01*
X157240047Y-94010065D01*
X157240041Y-94010067D01*
X157071605Y-94079835D01*
X157068444Y-94081525D01*
X157066600Y-94081908D01*
X157065984Y-94082164D01*
X157065935Y-94082047D01*
X157000040Y-94095761D01*
X156951556Y-94081525D01*
X156948394Y-94079835D01*
X156779958Y-94010067D01*
X156779952Y-94010065D01*
X156601156Y-93974500D01*
X156601154Y-93974500D01*
X156418846Y-93974500D01*
X156418844Y-93974500D01*
X156240047Y-94010065D01*
X156240041Y-94010067D01*
X156071605Y-94079835D01*
X156068444Y-94081525D01*
X156066600Y-94081908D01*
X156065984Y-94082164D01*
X156065935Y-94082047D01*
X156000040Y-94095761D01*
X155951556Y-94081525D01*
X155948394Y-94079835D01*
X155779958Y-94010067D01*
X155779952Y-94010065D01*
X155601156Y-93974500D01*
X155601154Y-93974500D01*
X155418846Y-93974500D01*
X155418844Y-93974500D01*
X155240048Y-94010065D01*
X155240037Y-94010068D01*
X155227867Y-94015109D01*
X155158398Y-94022573D01*
X155137089Y-94016727D01*
X155042380Y-93981403D01*
X155042372Y-93981401D01*
X154982844Y-93975000D01*
X154760000Y-93975000D01*
X154760000Y-94318983D01*
X154740315Y-94386022D01*
X154739103Y-94387873D01*
X154689830Y-94461614D01*
X154620068Y-94630037D01*
X154620065Y-94630047D01*
X154611805Y-94671570D01*
X154559728Y-94650000D01*
X154460272Y-94650000D01*
X154368386Y-94688060D01*
X154298060Y-94758386D01*
X154260000Y-94850272D01*
X154260000Y-94949728D01*
X154298060Y-95041614D01*
X154368386Y-95111940D01*
X154434696Y-95139406D01*
X154386000Y-95150000D01*
X153585000Y-95150000D01*
X153585000Y-95372844D01*
X153591401Y-95432372D01*
X153591403Y-95432379D01*
X153641645Y-95567086D01*
X153641649Y-95567093D01*
X153727809Y-95682187D01*
X153727812Y-95682190D01*
X153842906Y-95768350D01*
X153842911Y-95768353D01*
X153872309Y-95779318D01*
X153928242Y-95821190D01*
X153952659Y-95886654D01*
X153937807Y-95954927D01*
X153888402Y-96004332D01*
X153828975Y-96019500D01*
X148816428Y-96019500D01*
X148807582Y-96019184D01*
X148785622Y-96017613D01*
X148607442Y-96004869D01*
X148589931Y-96002351D01*
X148398212Y-95960646D01*
X148381236Y-95955662D01*
X148197390Y-95887090D01*
X148181298Y-95879740D01*
X148009095Y-95785711D01*
X147994210Y-95776146D01*
X147919431Y-95720167D01*
X147837132Y-95658558D01*
X147823762Y-95646972D01*
X147685027Y-95508237D01*
X147673441Y-95494867D01*
X147626663Y-95432379D01*
X147555849Y-95337784D01*
X147546288Y-95322904D01*
X147452259Y-95150701D01*
X147444909Y-95134609D01*
X147410223Y-95041614D01*
X147376334Y-94950755D01*
X147371355Y-94933797D01*
X147329647Y-94742063D01*
X147327130Y-94724556D01*
X147312816Y-94524418D01*
X147312500Y-94515572D01*
X147312500Y-94427155D01*
X153585000Y-94427155D01*
X153585000Y-94650000D01*
X154260000Y-94650000D01*
X154260000Y-93975000D01*
X154037155Y-93975000D01*
X153977627Y-93981401D01*
X153977620Y-93981403D01*
X153842913Y-94031645D01*
X153842906Y-94031649D01*
X153727812Y-94117809D01*
X153727809Y-94117812D01*
X153641649Y-94232906D01*
X153641645Y-94232913D01*
X153591403Y-94367620D01*
X153591401Y-94367627D01*
X153585000Y-94427155D01*
X147312500Y-94427155D01*
X147312500Y-90345153D01*
X152107500Y-90345153D01*
X152107500Y-90502846D01*
X152138261Y-90657489D01*
X152138264Y-90657501D01*
X152198602Y-90803172D01*
X152198609Y-90803185D01*
X152286602Y-90934874D01*
X152307480Y-91001551D01*
X152307500Y-91003765D01*
X152307500Y-91861330D01*
X152307499Y-91861348D01*
X152307499Y-92027054D01*
X152307498Y-92027054D01*
X152348423Y-92179786D01*
X152362820Y-92204720D01*
X152362821Y-92204725D01*
X152362823Y-92204725D01*
X152427479Y-92316714D01*
X152427481Y-92316717D01*
X152546349Y-92435585D01*
X152546355Y-92435590D01*
X152835425Y-92724660D01*
X152868910Y-92785983D01*
X152869361Y-92788149D01*
X152900261Y-92943491D01*
X152900264Y-92943501D01*
X152960602Y-93089172D01*
X152960609Y-93089185D01*
X153048210Y-93220288D01*
X153048213Y-93220292D01*
X153159707Y-93331786D01*
X153159711Y-93331789D01*
X153290814Y-93419390D01*
X153290827Y-93419397D01*
X153436498Y-93479735D01*
X153436503Y-93479737D01*
X153591153Y-93510499D01*
X153591156Y-93510500D01*
X153591158Y-93510500D01*
X153748844Y-93510500D01*
X153748845Y-93510499D01*
X153903497Y-93479737D01*
X154049179Y-93419394D01*
X154180289Y-93331789D01*
X154291789Y-93220289D01*
X154379394Y-93089179D01*
X154439737Y-92943497D01*
X154443687Y-92923638D01*
X154451343Y-92885153D01*
X157187500Y-92885153D01*
X157187500Y-93042846D01*
X157218261Y-93197489D01*
X157218264Y-93197501D01*
X157278602Y-93343172D01*
X157278609Y-93343185D01*
X157366210Y-93474288D01*
X157366213Y-93474292D01*
X157477707Y-93585786D01*
X157477711Y-93585789D01*
X157608814Y-93673390D01*
X157608827Y-93673397D01*
X157754498Y-93733735D01*
X157754503Y-93733737D01*
X157909153Y-93764499D01*
X157909156Y-93764500D01*
X157909158Y-93764500D01*
X158066844Y-93764500D01*
X158066845Y-93764499D01*
X158221497Y-93733737D01*
X158367179Y-93673394D01*
X158498289Y-93585789D01*
X158609789Y-93474289D01*
X158697394Y-93343179D01*
X158757737Y-93197497D01*
X158779283Y-93089179D01*
X158788638Y-93042151D01*
X158797402Y-93025395D01*
X158801422Y-93006917D01*
X158820169Y-92981871D01*
X158821023Y-92980240D01*
X158822542Y-92978692D01*
X158854505Y-92946728D01*
X158854509Y-92946726D01*
X158864714Y-92936520D01*
X158864716Y-92936520D01*
X158976520Y-92824716D01*
X159055577Y-92687784D01*
X159096500Y-92535057D01*
X159096500Y-91003765D01*
X159116185Y-90936726D01*
X159117398Y-90934874D01*
X159205390Y-90803185D01*
X159205390Y-90803184D01*
X159205394Y-90803179D01*
X159265737Y-90657497D01*
X159296500Y-90502842D01*
X159296500Y-90345158D01*
X159296500Y-90345155D01*
X159296499Y-90345153D01*
X159265738Y-90190510D01*
X159265737Y-90190503D01*
X159265735Y-90190498D01*
X159205397Y-90044827D01*
X159205390Y-90044814D01*
X159117789Y-89913711D01*
X159117786Y-89913707D01*
X159006292Y-89802213D01*
X159006288Y-89802210D01*
X158875185Y-89714609D01*
X158875172Y-89714602D01*
X158729501Y-89654264D01*
X158729489Y-89654261D01*
X158574845Y-89623500D01*
X158574842Y-89623500D01*
X158417158Y-89623500D01*
X158417155Y-89623500D01*
X158262510Y-89654261D01*
X158262498Y-89654264D01*
X158116827Y-89714602D01*
X158116814Y-89714609D01*
X157985711Y-89802210D01*
X157985707Y-89802213D01*
X157874213Y-89913707D01*
X157874210Y-89913711D01*
X157786609Y-90044814D01*
X157786602Y-90044827D01*
X157726264Y-90190498D01*
X157726261Y-90190510D01*
X157695500Y-90345153D01*
X157695500Y-90502846D01*
X157726261Y-90657489D01*
X157726264Y-90657501D01*
X157786602Y-90803172D01*
X157786609Y-90803185D01*
X157874602Y-90934874D01*
X157895480Y-91001551D01*
X157895500Y-91003765D01*
X157895500Y-92064452D01*
X157875815Y-92131491D01*
X157823011Y-92177246D01*
X157795693Y-92186069D01*
X157754507Y-92194261D01*
X157754498Y-92194264D01*
X157608827Y-92254602D01*
X157608814Y-92254609D01*
X157477711Y-92342210D01*
X157477707Y-92342213D01*
X157366213Y-92453707D01*
X157366210Y-92453711D01*
X157278609Y-92584814D01*
X157278602Y-92584827D01*
X157218264Y-92730498D01*
X157218261Y-92730510D01*
X157187500Y-92885153D01*
X154451343Y-92885153D01*
X154457366Y-92854874D01*
X154457366Y-92854873D01*
X154470499Y-92788846D01*
X154470500Y-92788844D01*
X154470500Y-92631155D01*
X154470499Y-92631153D01*
X154461283Y-92584821D01*
X154439737Y-92476503D01*
X154430295Y-92453707D01*
X154379397Y-92330827D01*
X154379390Y-92330814D01*
X154291789Y-92199711D01*
X154291786Y-92199707D01*
X154180292Y-92088213D01*
X154180288Y-92088210D01*
X154049185Y-92000609D01*
X154049172Y-92000602D01*
X153903501Y-91940264D01*
X153903491Y-91940261D01*
X153748151Y-91909362D01*
X153731394Y-91900596D01*
X153712916Y-91896577D01*
X153687877Y-91877832D01*
X153686241Y-91876977D01*
X153684662Y-91875426D01*
X153544819Y-91735583D01*
X153511334Y-91674260D01*
X153508500Y-91647902D01*
X153508500Y-91003765D01*
X153528185Y-90936726D01*
X153529398Y-90934874D01*
X153617390Y-90803185D01*
X153617390Y-90803184D01*
X153617394Y-90803179D01*
X153677737Y-90657497D01*
X153708500Y-90502842D01*
X153708500Y-90345158D01*
X153708500Y-90345155D01*
X153708499Y-90345153D01*
X153677738Y-90190510D01*
X153677737Y-90190503D01*
X153677735Y-90190498D01*
X153617397Y-90044827D01*
X153617390Y-90044814D01*
X153529789Y-89913711D01*
X153529786Y-89913707D01*
X153418292Y-89802213D01*
X153418288Y-89802210D01*
X153287185Y-89714609D01*
X153287172Y-89714602D01*
X153141501Y-89654264D01*
X153141489Y-89654261D01*
X152986845Y-89623500D01*
X152986842Y-89623500D01*
X152829158Y-89623500D01*
X152829155Y-89623500D01*
X152674510Y-89654261D01*
X152674498Y-89654264D01*
X152528827Y-89714602D01*
X152528814Y-89714609D01*
X152397711Y-89802210D01*
X152397707Y-89802213D01*
X152286213Y-89913707D01*
X152286210Y-89913711D01*
X152198609Y-90044814D01*
X152198602Y-90044827D01*
X152138264Y-90190498D01*
X152138261Y-90190510D01*
X152107500Y-90345153D01*
X147312500Y-90345153D01*
X147312500Y-84808427D01*
X147312816Y-84799581D01*
X147327130Y-84599443D01*
X147327131Y-84599434D01*
X147329646Y-84581938D01*
X147371356Y-84390199D01*
X147376333Y-84373248D01*
X147444911Y-84189385D01*
X147452259Y-84173298D01*
X147514815Y-84058734D01*
X147546291Y-84001089D01*
X147555845Y-83986221D01*
X147673448Y-83829123D01*
X147685020Y-83815769D01*
X147823769Y-83677020D01*
X147837123Y-83665448D01*
X147994221Y-83547845D01*
X148009089Y-83538291D01*
X148181298Y-83444258D01*
X148197385Y-83436911D01*
X148381248Y-83368333D01*
X148398199Y-83363356D01*
X148589938Y-83321646D01*
X148607436Y-83319130D01*
X148807582Y-83304816D01*
X148816428Y-83304500D01*
X148877892Y-83304500D01*
X168114108Y-83304500D01*
X168175572Y-83304500D01*
X168184418Y-83304816D01*
G37*
%TD.AperFunction*%
%TD*%
M02*
