%TF.GenerationSoftware,KiCad,Pcbnew,9.0.7*%
%TF.CreationDate,2026-01-29T21:33:16-08:00*%
%TF.ProjectId,Lab3,4c616233-2e6b-4696-9361-645f70636258,rev?*%
%TF.SameCoordinates,Original*%
%TF.FileFunction,Copper,L1,Top*%
%TF.FilePolarity,Positive*%
%FSLAX46Y46*%
G04 Gerber Fmt 4.6, Leading zero omitted, Abs format (unit mm)*
G04 Created by KiCad (PCBNEW 9.0.7) date 2026-01-29 21:33:16*
%MOMM*%
%LPD*%
G01*
G04 APERTURE LIST*
G04 Aperture macros list*
%AMRoundRect*
0 Rectangle with rounded corners*
0 $1 Rounding radius*
0 $2 $3 $4 $5 $6 $7 $8 $9 X,Y pos of 4 corners*
0 Add a 4 corners polygon primitive as box body*
4,1,4,$2,$3,$4,$5,$6,$7,$8,$9,$2,$3,0*
0 Add four circle primitives for the rounded corners*
1,1,$1+$1,$2,$3*
1,1,$1+$1,$4,$5*
1,1,$1+$1,$6,$7*
1,1,$1+$1,$8,$9*
0 Add four rect primitives between the rounded corners*
20,1,$1+$1,$2,$3,$4,$5,0*
20,1,$1+$1,$4,$5,$6,$7,0*
20,1,$1+$1,$6,$7,$8,$9,0*
20,1,$1+$1,$8,$9,$2,$3,0*%
G04 Aperture macros list end*
%TA.AperFunction,SMDPad,CuDef*%
%ADD10R,0.576580X0.351536*%
%TD*%
%TA.AperFunction,SMDPad,CuDef*%
%ADD11R,0.351536X0.576580*%
%TD*%
%TA.AperFunction,SMDPad,CuDef*%
%ADD12R,1.270000X0.508000*%
%TD*%
%TA.AperFunction,SMDPad,CuDef*%
%ADD13RoundRect,0.237500X0.237500X-0.250000X0.237500X0.250000X-0.237500X0.250000X-0.237500X-0.250000X0*%
%TD*%
%TA.AperFunction,SMDPad,CuDef*%
%ADD14RoundRect,0.237500X-0.237500X0.250000X-0.237500X-0.250000X0.237500X-0.250000X0.237500X0.250000X0*%
%TD*%
%TA.AperFunction,ComponentPad*%
%ADD15R,0.850000X0.850000*%
%TD*%
%TA.AperFunction,ComponentPad*%
%ADD16C,0.850000*%
%TD*%
%TA.AperFunction,SMDPad,CuDef*%
%ADD17RoundRect,0.237500X0.237500X-0.287500X0.237500X0.287500X-0.237500X0.287500X-0.237500X-0.287500X0*%
%TD*%
%TA.AperFunction,SMDPad,CuDef*%
%ADD18RoundRect,0.237500X-0.237500X0.300000X-0.237500X-0.300000X0.237500X-0.300000X0.237500X0.300000X0*%
%TD*%
%TA.AperFunction,SMDPad,CuDef*%
%ADD19RoundRect,0.237500X0.237500X-0.300000X0.237500X0.300000X-0.237500X0.300000X-0.237500X-0.300000X0*%
%TD*%
%TA.AperFunction,ViaPad*%
%ADD20C,0.600000*%
%TD*%
%TA.AperFunction,Conductor*%
%ADD21C,0.200000*%
%TD*%
G04 APERTURE END LIST*
D10*
%TO.P,U2,1,SDO/SA0*%
%TO.N,unconnected-(U2-SDO{slash}SA0-Pad1)*%
X157166300Y-87110001D03*
%TO.P,U2,2,SDX*%
%TO.N,GND*%
X157166300Y-86610000D03*
%TO.P,U2,3,SCX*%
X157166300Y-86110000D03*
%TO.P,U2,4,INT1*%
%TO.N,unconnected-(U2-INT1-Pad4)*%
X157166300Y-85609999D03*
D11*
%TO.P,U2,5,VDDIO*%
%TO.N,+3V3*%
X156455999Y-85403700D03*
%TO.P,U2,6,GND*%
%TO.N,unconnected-(U2-GND-Pad6)*%
X155956000Y-85403700D03*
%TO.P,U2,7,GND*%
%TO.N,unconnected-(U2-GND-Pad7)*%
X155456001Y-85403700D03*
D10*
%TO.P,U2,8,VDD*%
%TO.N,+3V3*%
X154745700Y-85609999D03*
%TO.P,U2,9,INT2*%
%TO.N,unconnected-(U2-INT2-Pad9)*%
X154745700Y-86110000D03*
%TO.P,U2,10,OCS_AUX*%
%TO.N,unconnected-(U2-OCS_AUX-Pad10)*%
X154745700Y-86610000D03*
%TO.P,U2,11,SDO_AUX*%
%TO.N,unconnected-(U2-SDO_AUX-Pad11)*%
X154745700Y-87110001D03*
D11*
%TO.P,U2,12,CS*%
%TO.N,unconnected-(U2-CS-Pad12)*%
X155456001Y-87316300D03*
%TO.P,U2,13,SCL*%
%TO.N,/SCL*%
X155956000Y-87316300D03*
%TO.P,U2,14,SDA*%
%TO.N,/SDA*%
X156455999Y-87316300D03*
%TD*%
D12*
%TO.P,U1,1,OUT*%
%TO.N,+3V3*%
X165912800Y-87790499D03*
%TO.P,U1,2,IN*%
%TO.N,VCC*%
X165912800Y-88740500D03*
%TO.P,U1,3,\u002AERR*%
%TO.N,unconnected-(U1-\u002AERR-Pad3)*%
X165912800Y-89690501D03*
%TO.P,U1,4,GND*%
%TO.N,GND*%
X168351200Y-89690501D03*
%TO.P,U1,5,FB*%
%TO.N,Net-(U1-FB)*%
X168351200Y-88740500D03*
%TO.P,U1,6,\u002ASD*%
%TO.N,unconnected-(U1-\u002ASD-Pad6)*%
X168351200Y-87790499D03*
%TD*%
D13*
%TO.P,R5,1*%
%TO.N,+3V3*%
X156972000Y-91844500D03*
%TO.P,R5,2*%
%TO.N,/SDA*%
X156972000Y-90019500D03*
%TD*%
%TO.P,R4,1*%
%TO.N,+3V3*%
X154432000Y-91844500D03*
%TO.P,R4,2*%
%TO.N,/SCL*%
X154432000Y-90019500D03*
%TD*%
%TO.P,R3,1*%
%TO.N,Net-(U1-FB)*%
X160020000Y-87272500D03*
%TO.P,R3,2*%
%TO.N,GND*%
X160020000Y-85447500D03*
%TD*%
%TO.P,R2,1*%
%TO.N,+3V3*%
X160020000Y-91844500D03*
%TO.P,R2,2*%
%TO.N,Net-(U1-FB)*%
X160020000Y-90019500D03*
%TD*%
D14*
%TO.P,R1,1*%
%TO.N,+3V3*%
X148336000Y-85447500D03*
%TO.P,R1,2*%
%TO.N,Net-(D1-A)*%
X148336000Y-87272500D03*
%TD*%
D15*
%TO.P,J1,1,Pin_1*%
%TO.N,GND*%
X154510000Y-94900000D03*
D16*
%TO.P,J1,2,Pin_2*%
%TO.N,/SCL*%
X155510000Y-94900000D03*
%TO.P,J1,3,Pin_3*%
%TO.N,/SDA*%
X156510000Y-94900000D03*
%TO.P,J1,4,Pin_4*%
%TO.N,VCC*%
X157510000Y-94900000D03*
%TD*%
D17*
%TO.P,D1,1,K*%
%TO.N,GND*%
X148336000Y-91807000D03*
%TO.P,D1,2,A*%
%TO.N,Net-(D1-A)*%
X148336000Y-90057000D03*
%TD*%
D18*
%TO.P,C4,1*%
%TO.N,+3V3*%
X151384000Y-90069500D03*
%TO.P,C4,2*%
%TO.N,GND*%
X151384000Y-91794500D03*
%TD*%
D19*
%TO.P,C3,1*%
%TO.N,+3V3*%
X151384000Y-87222500D03*
%TO.P,C3,2*%
%TO.N,GND*%
X151384000Y-85497500D03*
%TD*%
%TO.P,C2,1*%
%TO.N,+3V3*%
X162560000Y-87222500D03*
%TO.P,C2,2*%
%TO.N,GND*%
X162560000Y-85497500D03*
%TD*%
D18*
%TO.P,C1,1*%
%TO.N,VCC*%
X162560000Y-90069500D03*
%TO.P,C1,2*%
%TO.N,GND*%
X162560000Y-91794500D03*
%TD*%
D20*
%TO.N,GND*%
X158496000Y-86360000D03*
%TO.N,/SCL*%
X153670000Y-92710000D03*
X152908000Y-90424000D03*
%TO.N,/SDA*%
X157988000Y-92964000D03*
X158496000Y-90424000D03*
%TD*%
D21*
%TO.N,GND*%
X157166300Y-86610000D02*
X158246000Y-86610000D01*
X158246000Y-86610000D02*
X158496000Y-86360000D01*
X158246000Y-86110000D02*
X158496000Y-86360000D01*
X157166300Y-86110000D02*
X158246000Y-86110000D01*
%TO.N,/SCL*%
X155510000Y-94550000D02*
X155510000Y-94900000D01*
X153670000Y-92710000D02*
X155510000Y-94550000D01*
X154432000Y-90019500D02*
X153312500Y-90019500D01*
X153312500Y-90019500D02*
X152908000Y-90424000D01*
%TO.N,/SDA*%
X157844960Y-92964000D02*
X156510000Y-94298960D01*
X157988000Y-92964000D02*
X157844960Y-92964000D01*
X156510000Y-94298960D02*
X156510000Y-94900000D01*
X156972000Y-90019500D02*
X158091500Y-90019500D01*
X158091500Y-90019500D02*
X158496000Y-90424000D01*
%TO.N,+3V3*%
X154432000Y-91844500D02*
X153159000Y-91844500D01*
X153159000Y-91844500D02*
X151384000Y-90069500D01*
X160020000Y-91844500D02*
X156972000Y-91844500D01*
X154432000Y-91844500D02*
X156972000Y-91844500D01*
%TO.N,/SDA*%
X156455999Y-87316300D02*
X156455999Y-89503499D01*
X156455999Y-89503499D02*
X156972000Y-90019500D01*
%TO.N,/SCL*%
X155956000Y-87316300D02*
X155956000Y-88495500D01*
X155956000Y-88495500D02*
X154432000Y-90019500D01*
%TO.N,+3V3*%
X156455999Y-84827999D02*
X155448000Y-83820000D01*
X154786500Y-83820000D02*
X152996501Y-85609999D01*
X156455999Y-85403700D02*
X156455999Y-84827999D01*
X155448000Y-83820000D02*
X154786500Y-83820000D01*
X151384000Y-87222500D02*
X152996501Y-85609999D01*
X152996501Y-85609999D02*
X154745700Y-85609999D01*
%TO.N,Net-(D1-A)*%
X148336000Y-87272500D02*
X148336000Y-90057000D01*
%TO.N,+3V3*%
X151384000Y-87222500D02*
X150111000Y-87222500D01*
X150111000Y-87222500D02*
X148336000Y-85447500D01*
X151334000Y-87272500D02*
X151384000Y-87222500D01*
X151384000Y-90069500D02*
X151384000Y-87222500D01*
%TO.N,Net-(U1-FB)*%
X168351200Y-88740500D02*
X167970200Y-88740500D01*
X167970200Y-88740500D02*
X166848800Y-87619100D01*
X166848800Y-87619100D02*
X166848800Y-87235499D01*
X166848800Y-87235499D02*
X165997301Y-86384000D01*
X165997301Y-86384000D02*
X160908500Y-86384000D01*
X160908500Y-86384000D02*
X160020000Y-87272500D01*
X160020000Y-90019500D02*
X160020000Y-87272500D01*
%TO.N,+3V3*%
X162560000Y-87222500D02*
X162560000Y-88735134D01*
X162560000Y-88735134D02*
X160020000Y-91275134D01*
X160020000Y-91275134D02*
X160020000Y-91844500D01*
X165912800Y-87790499D02*
X163127999Y-87790499D01*
X163127999Y-87790499D02*
X162560000Y-87222500D01*
%TO.N,VCC*%
X162560000Y-90069500D02*
X163889000Y-88740500D01*
X163889000Y-88740500D02*
X165912800Y-88740500D01*
X157510000Y-94900000D02*
X159208134Y-94900000D01*
X161784000Y-90845500D02*
X162560000Y-90069500D01*
X159208134Y-94900000D02*
X161784000Y-92324134D01*
X161784000Y-92324134D02*
X161784000Y-90845500D01*
%TD*%
%TA.AperFunction,Conductor*%
%TO.N,GND*%
G36*
X149516673Y-87477858D02*
G01*
X149523180Y-87483915D01*
X149626139Y-87586874D01*
X149626149Y-87586885D01*
X149630479Y-87591215D01*
X149630480Y-87591216D01*
X149742284Y-87703020D01*
X149828886Y-87753019D01*
X149875371Y-87779858D01*
X149879215Y-87782077D01*
X150031943Y-87823000D01*
X150190057Y-87823000D01*
X150395548Y-87823000D01*
X150462587Y-87842685D01*
X150501086Y-87881903D01*
X150563657Y-87983346D01*
X150563660Y-87983350D01*
X150685650Y-88105340D01*
X150724597Y-88129362D01*
X150771320Y-88181307D01*
X150783500Y-88234900D01*
X150783500Y-89057098D01*
X150763815Y-89124137D01*
X150724598Y-89162636D01*
X150685650Y-89186659D01*
X150563661Y-89308648D01*
X150473093Y-89455481D01*
X150473091Y-89455486D01*
X150458281Y-89500180D01*
X150418826Y-89619247D01*
X150418826Y-89619248D01*
X150418825Y-89619248D01*
X150408500Y-89720315D01*
X150408500Y-90418669D01*
X150408501Y-90418687D01*
X150418825Y-90519752D01*
X150455109Y-90629249D01*
X150473092Y-90683516D01*
X150563659Y-90830349D01*
X150563661Y-90830351D01*
X150577982Y-90844672D01*
X150611467Y-90905995D01*
X150606483Y-90975687D01*
X150577985Y-91020032D01*
X150564052Y-91033965D01*
X150473551Y-91180688D01*
X150473546Y-91180699D01*
X150419319Y-91344347D01*
X150409000Y-91445345D01*
X150409000Y-91544500D01*
X151260000Y-91544500D01*
X151327039Y-91564185D01*
X151372794Y-91616989D01*
X151384000Y-91668500D01*
X151384000Y-91794500D01*
X151510000Y-91794500D01*
X151577039Y-91814185D01*
X151622794Y-91866989D01*
X151634000Y-91918500D01*
X151634000Y-92831999D01*
X151670640Y-92831999D01*
X151670654Y-92831998D01*
X151771652Y-92821680D01*
X151935300Y-92767453D01*
X151935311Y-92767448D01*
X152082034Y-92676947D01*
X152082038Y-92676944D01*
X152203944Y-92555038D01*
X152203947Y-92555034D01*
X152294448Y-92408311D01*
X152294453Y-92408300D01*
X152348680Y-92244652D01*
X152355644Y-92176496D01*
X152361680Y-92161702D01*
X152362820Y-92145765D01*
X152374608Y-92130017D01*
X152382040Y-92111805D01*
X152395116Y-92102622D01*
X152404692Y-92089832D01*
X152423120Y-92082958D01*
X152439221Y-92071653D01*
X152455186Y-92070998D01*
X152470156Y-92065415D01*
X152489376Y-92069596D01*
X152509032Y-92068790D01*
X152523617Y-92077045D01*
X152538429Y-92080267D01*
X152566683Y-92101418D01*
X152674139Y-92208874D01*
X152674149Y-92208885D01*
X152678479Y-92213215D01*
X152678480Y-92213216D01*
X152790284Y-92325020D01*
X152839009Y-92353151D01*
X152887224Y-92403717D01*
X152900448Y-92472324D01*
X152898626Y-92484729D01*
X152869500Y-92631153D01*
X152869500Y-92788846D01*
X152900261Y-92943489D01*
X152900264Y-92943501D01*
X152960602Y-93089172D01*
X152960609Y-93089185D01*
X153048210Y-93220288D01*
X153048213Y-93220292D01*
X153159707Y-93331786D01*
X153159711Y-93331789D01*
X153290814Y-93419390D01*
X153290827Y-93419397D01*
X153436498Y-93479735D01*
X153436503Y-93479737D01*
X153501147Y-93492595D01*
X153591849Y-93510638D01*
X153653760Y-93543023D01*
X153655339Y-93544574D01*
X153924615Y-93813850D01*
X153958100Y-93875173D01*
X153953116Y-93944865D01*
X153911244Y-94000798D01*
X153880269Y-94017712D01*
X153842915Y-94031644D01*
X153842906Y-94031649D01*
X153727812Y-94117809D01*
X153727809Y-94117812D01*
X153641649Y-94232906D01*
X153641645Y-94232913D01*
X153591403Y-94367620D01*
X153591401Y-94367627D01*
X153585000Y-94427155D01*
X153585000Y-94650000D01*
X154386000Y-94650000D01*
X154429461Y-94662761D01*
X154368386Y-94688060D01*
X154298060Y-94758386D01*
X154260000Y-94850272D01*
X154260000Y-94949728D01*
X154298060Y-95041614D01*
X154368386Y-95111940D01*
X154434696Y-95139406D01*
X154386000Y-95150000D01*
X153585000Y-95150000D01*
X153585000Y-95372844D01*
X153591401Y-95432372D01*
X153591403Y-95432379D01*
X153641645Y-95567086D01*
X153641649Y-95567093D01*
X153727809Y-95682187D01*
X153727812Y-95682190D01*
X153842906Y-95768350D01*
X153842911Y-95768353D01*
X153872309Y-95779318D01*
X153928242Y-95821190D01*
X153952659Y-95886654D01*
X153937807Y-95954927D01*
X153888402Y-96004332D01*
X153828975Y-96019500D01*
X148816428Y-96019500D01*
X148807582Y-96019184D01*
X148768937Y-96016420D01*
X148607442Y-96004869D01*
X148589931Y-96002351D01*
X148398212Y-95960646D01*
X148381236Y-95955662D01*
X148197390Y-95887090D01*
X148181298Y-95879740D01*
X148009095Y-95785711D01*
X147994210Y-95776146D01*
X147919431Y-95720167D01*
X147837132Y-95658558D01*
X147823762Y-95646972D01*
X147685027Y-95508237D01*
X147673441Y-95494867D01*
X147647023Y-95459577D01*
X147555849Y-95337784D01*
X147546288Y-95322904D01*
X147452259Y-95150701D01*
X147444909Y-95134609D01*
X147410223Y-95041614D01*
X147376334Y-94950755D01*
X147371355Y-94933797D01*
X147329647Y-94742063D01*
X147327130Y-94724556D01*
X147326982Y-94722489D01*
X147312816Y-94524418D01*
X147312500Y-94515572D01*
X147312500Y-92650845D01*
X147332185Y-92583806D01*
X147384989Y-92538051D01*
X147454147Y-92528107D01*
X147517703Y-92557132D01*
X147524181Y-92563164D01*
X147637961Y-92676944D01*
X147637965Y-92676947D01*
X147784688Y-92767448D01*
X147784699Y-92767453D01*
X147948347Y-92821680D01*
X148049352Y-92831999D01*
X148086000Y-92831999D01*
X148586000Y-92831999D01*
X148622640Y-92831999D01*
X148622654Y-92831998D01*
X148723652Y-92821680D01*
X148887300Y-92767453D01*
X148887311Y-92767448D01*
X149034034Y-92676947D01*
X149034038Y-92676944D01*
X149155944Y-92555038D01*
X149155947Y-92555034D01*
X149246448Y-92408311D01*
X149246453Y-92408300D01*
X149300680Y-92244652D01*
X149310999Y-92143654D01*
X150409001Y-92143654D01*
X150419319Y-92244652D01*
X150473546Y-92408300D01*
X150473551Y-92408311D01*
X150564052Y-92555034D01*
X150564055Y-92555038D01*
X150685961Y-92676944D01*
X150685965Y-92676947D01*
X150832688Y-92767448D01*
X150832699Y-92767453D01*
X150996347Y-92821680D01*
X151097352Y-92831999D01*
X151134000Y-92831999D01*
X151134000Y-92044500D01*
X150409001Y-92044500D01*
X150409001Y-92143654D01*
X149310999Y-92143654D01*
X149311000Y-92143641D01*
X149311000Y-92057000D01*
X148586000Y-92057000D01*
X148586000Y-92831999D01*
X148086000Y-92831999D01*
X148086000Y-91931000D01*
X148105685Y-91863961D01*
X148158489Y-91818206D01*
X148210000Y-91807000D01*
X148336000Y-91807000D01*
X148336000Y-91681000D01*
X148355685Y-91613961D01*
X148408489Y-91568206D01*
X148460000Y-91557000D01*
X149310999Y-91557000D01*
X149310999Y-91470360D01*
X149310998Y-91470345D01*
X149300680Y-91369347D01*
X149246453Y-91205699D01*
X149246448Y-91205688D01*
X149155947Y-91058965D01*
X149155944Y-91058961D01*
X149117017Y-91020034D01*
X149083532Y-90958711D01*
X149088516Y-90889019D01*
X149117016Y-90844673D01*
X149156340Y-90805350D01*
X149246908Y-90658516D01*
X149301174Y-90494753D01*
X149311500Y-90393677D01*
X149311499Y-89720324D01*
X149310463Y-89710186D01*
X149301174Y-89619247D01*
X149292500Y-89593071D01*
X149246908Y-89455484D01*
X149156340Y-89308650D01*
X149034350Y-89186660D01*
X149034349Y-89186659D01*
X148995402Y-89162636D01*
X148948678Y-89110687D01*
X148936500Y-89057098D01*
X148936500Y-88234900D01*
X148956185Y-88167861D01*
X148995401Y-88129363D01*
X149034350Y-88105340D01*
X149156340Y-87983350D01*
X149246908Y-87836516D01*
X149301174Y-87672753D01*
X149311500Y-87571677D01*
X149311499Y-87571629D01*
X149311502Y-87571621D01*
X149311660Y-87568529D01*
X149311820Y-87568537D01*
X149311821Y-87568536D01*
X149311844Y-87568538D01*
X149312398Y-87568566D01*
X149331163Y-87504589D01*
X149383953Y-87458818D01*
X149453108Y-87448853D01*
X149516673Y-87477858D01*
G37*
%TD.AperFunction*%
%TA.AperFunction,Conductor*%
G36*
X164720339Y-89360685D02*
G01*
X164766094Y-89413489D01*
X164777300Y-89465000D01*
X164777300Y-89992371D01*
X164777301Y-89992377D01*
X164783708Y-90051984D01*
X164834002Y-90186829D01*
X164834006Y-90186836D01*
X164920252Y-90302045D01*
X164920255Y-90302048D01*
X165035464Y-90388294D01*
X165035471Y-90388298D01*
X165170317Y-90438592D01*
X165170316Y-90438592D01*
X165177244Y-90439336D01*
X165229927Y-90445001D01*
X166595672Y-90445000D01*
X166655283Y-90438592D01*
X166790131Y-90388297D01*
X166905346Y-90302047D01*
X166991596Y-90186832D01*
X167016085Y-90121174D01*
X167057954Y-90065242D01*
X167123418Y-90040824D01*
X167191691Y-90055675D01*
X167241097Y-90105079D01*
X167248448Y-90121174D01*
X167272846Y-90186589D01*
X167272849Y-90186594D01*
X167359009Y-90301688D01*
X167359012Y-90301691D01*
X167474106Y-90387851D01*
X167474113Y-90387855D01*
X167608820Y-90438097D01*
X167608827Y-90438099D01*
X167668355Y-90444500D01*
X167668372Y-90444501D01*
X168101200Y-90444501D01*
X168101200Y-89814501D01*
X168120885Y-89747462D01*
X168173689Y-89701707D01*
X168225200Y-89690501D01*
X168477200Y-89690501D01*
X168544239Y-89710186D01*
X168589994Y-89762990D01*
X168601200Y-89814501D01*
X168601200Y-90444501D01*
X169034028Y-90444501D01*
X169034044Y-90444500D01*
X169093572Y-90438099D01*
X169093579Y-90438097D01*
X169228286Y-90387855D01*
X169228293Y-90387851D01*
X169343387Y-90301691D01*
X169343390Y-90301688D01*
X169429550Y-90186594D01*
X169429555Y-90186585D01*
X169439318Y-90160410D01*
X169481188Y-90104476D01*
X169546652Y-90080058D01*
X169614926Y-90094909D01*
X169664331Y-90144314D01*
X169679500Y-90203742D01*
X169679500Y-94515572D01*
X169679184Y-94524418D01*
X169679184Y-94524419D01*
X169664869Y-94724557D01*
X169662351Y-94742068D01*
X169620646Y-94933787D01*
X169615662Y-94950763D01*
X169547090Y-95134609D01*
X169539740Y-95150701D01*
X169445711Y-95322904D01*
X169436146Y-95337789D01*
X169318558Y-95494867D01*
X169306972Y-95508237D01*
X169168237Y-95646972D01*
X169154867Y-95658558D01*
X168997789Y-95776146D01*
X168982904Y-95785711D01*
X168810701Y-95879740D01*
X168794609Y-95887090D01*
X168610763Y-95955662D01*
X168593787Y-95960646D01*
X168402068Y-96002351D01*
X168384557Y-96004869D01*
X168205894Y-96017648D01*
X168184417Y-96019184D01*
X168175572Y-96019500D01*
X157849124Y-96019500D01*
X157782085Y-95999815D01*
X157736330Y-95947011D01*
X157726386Y-95877853D01*
X157755411Y-95814297D01*
X157801672Y-95780939D01*
X157948387Y-95720168D01*
X157948391Y-95720166D01*
X158048544Y-95653246D01*
X158099972Y-95618883D01*
X158182037Y-95536817D01*
X158243358Y-95503334D01*
X158269717Y-95500500D01*
X159121465Y-95500500D01*
X159121481Y-95500501D01*
X159129077Y-95500501D01*
X159287188Y-95500501D01*
X159287191Y-95500501D01*
X159439919Y-95459577D01*
X159490038Y-95430639D01*
X159576850Y-95380520D01*
X159688654Y-95268716D01*
X159688654Y-95268714D01*
X159698862Y-95258507D01*
X159698863Y-95258504D01*
X162097424Y-92859945D01*
X162158743Y-92826463D01*
X162197704Y-92824271D01*
X162273352Y-92831999D01*
X162310000Y-92831999D01*
X162810000Y-92831999D01*
X162846640Y-92831999D01*
X162846654Y-92831998D01*
X162947652Y-92821680D01*
X163111300Y-92767453D01*
X163111311Y-92767448D01*
X163258034Y-92676947D01*
X163258038Y-92676944D01*
X163379944Y-92555038D01*
X163379947Y-92555034D01*
X163470448Y-92408311D01*
X163470453Y-92408300D01*
X163524680Y-92244652D01*
X163534999Y-92143654D01*
X163535000Y-92143641D01*
X163535000Y-92044500D01*
X162810000Y-92044500D01*
X162810000Y-92831999D01*
X162310000Y-92831999D01*
X162310000Y-92647300D01*
X162326613Y-92585299D01*
X162343577Y-92555918D01*
X162384501Y-92403191D01*
X162384501Y-92245076D01*
X162384501Y-92237481D01*
X162384500Y-92237463D01*
X162384500Y-91918500D01*
X162404185Y-91851461D01*
X162456989Y-91805706D01*
X162508500Y-91794500D01*
X162560000Y-91794500D01*
X162560000Y-91668500D01*
X162579685Y-91601461D01*
X162632489Y-91555706D01*
X162684000Y-91544500D01*
X163534999Y-91544500D01*
X163534999Y-91445360D01*
X163534998Y-91445345D01*
X163524680Y-91344347D01*
X163470453Y-91180699D01*
X163470448Y-91180688D01*
X163379947Y-91033965D01*
X163379944Y-91033961D01*
X163366017Y-91020034D01*
X163332532Y-90958711D01*
X163337516Y-90889019D01*
X163366017Y-90844672D01*
X163380340Y-90830350D01*
X163470908Y-90683516D01*
X163525174Y-90519753D01*
X163535500Y-90418677D01*
X163535499Y-89994595D01*
X163555183Y-89927557D01*
X163571813Y-89906920D01*
X164101416Y-89377319D01*
X164162739Y-89343834D01*
X164189097Y-89341000D01*
X164653300Y-89341000D01*
X164720339Y-89360685D01*
G37*
%TD.AperFunction*%
%TA.AperFunction,Conductor*%
G36*
X168184418Y-83304816D02*
G01*
X168384561Y-83319130D01*
X168402063Y-83321647D01*
X168593797Y-83363355D01*
X168610755Y-83368334D01*
X168794609Y-83436909D01*
X168810701Y-83444259D01*
X168982904Y-83538288D01*
X168997784Y-83547849D01*
X169154867Y-83665441D01*
X169168237Y-83677027D01*
X169306972Y-83815762D01*
X169318558Y-83829132D01*
X169436146Y-83986210D01*
X169445711Y-84001095D01*
X169539740Y-84173298D01*
X169547090Y-84189390D01*
X169615662Y-84373236D01*
X169620646Y-84390212D01*
X169662351Y-84581931D01*
X169664869Y-84599442D01*
X169679184Y-84799580D01*
X169679500Y-84808427D01*
X169679500Y-87275827D01*
X169659815Y-87342866D01*
X169607011Y-87388621D01*
X169537853Y-87398565D01*
X169474297Y-87369540D01*
X169439318Y-87319161D01*
X169429996Y-87294168D01*
X169429993Y-87294163D01*
X169343747Y-87178954D01*
X169343744Y-87178951D01*
X169228535Y-87092705D01*
X169228528Y-87092701D01*
X169093682Y-87042407D01*
X169093683Y-87042407D01*
X169034083Y-87036000D01*
X169034081Y-87035999D01*
X169034073Y-87035999D01*
X169034064Y-87035999D01*
X167668329Y-87035999D01*
X167668323Y-87036000D01*
X167608715Y-87042408D01*
X167560529Y-87060380D01*
X167490838Y-87065364D01*
X167429515Y-87031878D01*
X167409809Y-87006197D01*
X167408377Y-87003718D01*
X167408377Y-87003715D01*
X167340617Y-86886350D01*
X167329321Y-86866784D01*
X167213185Y-86750648D01*
X167213174Y-86750638D01*
X166484891Y-86022355D01*
X166484889Y-86022352D01*
X166366018Y-85903481D01*
X166366017Y-85903480D01*
X166269494Y-85847753D01*
X166269493Y-85847752D01*
X166229084Y-85824422D01*
X166173182Y-85809443D01*
X166076358Y-85783499D01*
X165918244Y-85783499D01*
X165910648Y-85783499D01*
X165910632Y-85783500D01*
X163622362Y-85783500D01*
X163555323Y-85763815D01*
X163535077Y-85747500D01*
X161584736Y-85747500D01*
X161523997Y-85780666D01*
X161497639Y-85783500D01*
X161119000Y-85783500D01*
X161051961Y-85763815D01*
X161006206Y-85711011D01*
X161005565Y-85708065D01*
X160995000Y-85697500D01*
X159045001Y-85697500D01*
X159045001Y-85746654D01*
X159055319Y-85847652D01*
X159109546Y-86011300D01*
X159109551Y-86011311D01*
X159200052Y-86158034D01*
X159200055Y-86158038D01*
X159313982Y-86271965D01*
X159347467Y-86333288D01*
X159342483Y-86402980D01*
X159313983Y-86447327D01*
X159199659Y-86561651D01*
X159109093Y-86708481D01*
X159109091Y-86708486D01*
X159095123Y-86750638D01*
X159054826Y-86872247D01*
X159054826Y-86872248D01*
X159054825Y-86872248D01*
X159044500Y-86973315D01*
X159044500Y-87571669D01*
X159044501Y-87571687D01*
X159054825Y-87672752D01*
X159109092Y-87836515D01*
X159109093Y-87836518D01*
X159111893Y-87841057D01*
X159199660Y-87983350D01*
X159321650Y-88105340D01*
X159360597Y-88129362D01*
X159407320Y-88181307D01*
X159419500Y-88234900D01*
X159419500Y-89057098D01*
X159399815Y-89124137D01*
X159360598Y-89162636D01*
X159321650Y-89186659D01*
X159199661Y-89308648D01*
X159109093Y-89455481D01*
X159109091Y-89455486D01*
X159094281Y-89500180D01*
X159060787Y-89601260D01*
X159054826Y-89619248D01*
X159053408Y-89625871D01*
X159051547Y-89625472D01*
X159028668Y-89681527D01*
X158971483Y-89721672D01*
X158901672Y-89724528D01*
X158880967Y-89716551D01*
X158880808Y-89716937D01*
X158729501Y-89654264D01*
X158729491Y-89654261D01*
X158574151Y-89623362D01*
X158524732Y-89601532D01*
X158517244Y-89596008D01*
X158460216Y-89538980D01*
X158372939Y-89488591D01*
X158366921Y-89485116D01*
X158366915Y-89485112D01*
X158323290Y-89459925D01*
X158323289Y-89459924D01*
X158306707Y-89455481D01*
X158170557Y-89418999D01*
X158012443Y-89418999D01*
X158004847Y-89418999D01*
X158004831Y-89419000D01*
X157929611Y-89419000D01*
X157862572Y-89399315D01*
X157824072Y-89360096D01*
X157792340Y-89308650D01*
X157670351Y-89186661D01*
X157670350Y-89186660D01*
X157523516Y-89096092D01*
X157359753Y-89041826D01*
X157359751Y-89041825D01*
X157258684Y-89031500D01*
X157258677Y-89031500D01*
X157180499Y-89031500D01*
X157113460Y-89011815D01*
X157067705Y-88959011D01*
X157056499Y-88907500D01*
X157056499Y-87913483D01*
X157060187Y-87899035D01*
X157059336Y-87887111D01*
X157071674Y-87854044D01*
X157073430Y-87850829D01*
X157122841Y-87801429D01*
X157182255Y-87786268D01*
X157502461Y-87786268D01*
X157502462Y-87786268D01*
X157562073Y-87779860D01*
X157696921Y-87729565D01*
X157812136Y-87643315D01*
X157898386Y-87528100D01*
X157948681Y-87393252D01*
X157955090Y-87333642D01*
X157955089Y-86886361D01*
X157948681Y-86826750D01*
X157898386Y-86691902D01*
X157853949Y-86632542D01*
X157829532Y-86567080D01*
X157844383Y-86498807D01*
X157893788Y-86449401D01*
X157953216Y-86434232D01*
X157954590Y-86434232D01*
X157954590Y-86386412D01*
X157954589Y-86386401D01*
X157953176Y-86373258D01*
X157953176Y-86346742D01*
X157954589Y-86333598D01*
X157954590Y-86333587D01*
X157954590Y-86285768D01*
X157953216Y-86285768D01*
X157946642Y-86283837D01*
X157939899Y-86285051D01*
X157913545Y-86274119D01*
X157886177Y-86266083D01*
X157881690Y-86260905D01*
X157875361Y-86258280D01*
X157859100Y-86234834D01*
X157840422Y-86213279D01*
X157839447Y-86206498D01*
X157835542Y-86200868D01*
X157834537Y-86172356D01*
X157830478Y-86144121D01*
X157833265Y-86136225D01*
X157833083Y-86131042D01*
X157840749Y-86115028D01*
X157846606Y-86098441D01*
X157849982Y-86092756D01*
X157898386Y-86028098D01*
X157915253Y-85982875D01*
X157920933Y-85973313D01*
X157929081Y-85965734D01*
X157939863Y-85948958D01*
X157954590Y-85934231D01*
X157954590Y-85886411D01*
X157954589Y-85886409D01*
X157953428Y-85875608D01*
X157953428Y-85849098D01*
X157955090Y-85833640D01*
X157955089Y-85386359D01*
X157948681Y-85326748D01*
X157948681Y-85326747D01*
X157898387Y-85191901D01*
X157898383Y-85191895D01*
X157865781Y-85148345D01*
X159045000Y-85148345D01*
X159045000Y-85197500D01*
X159770000Y-85197500D01*
X160270000Y-85197500D01*
X160994999Y-85197500D01*
X160994999Y-85148361D01*
X160994998Y-85148345D01*
X161585000Y-85148345D01*
X161585000Y-85247500D01*
X162310000Y-85247500D01*
X162810000Y-85247500D01*
X163534999Y-85247500D01*
X163534999Y-85148360D01*
X163534998Y-85148345D01*
X163524680Y-85047347D01*
X163470453Y-84883699D01*
X163470448Y-84883688D01*
X163379947Y-84736965D01*
X163379944Y-84736961D01*
X163258038Y-84615055D01*
X163258034Y-84615052D01*
X163111311Y-84524551D01*
X163111300Y-84524546D01*
X162947652Y-84470319D01*
X162846654Y-84460000D01*
X162810000Y-84460000D01*
X162810000Y-85247500D01*
X162310000Y-85247500D01*
X162310000Y-84460000D01*
X162273361Y-84460000D01*
X162273343Y-84460001D01*
X162172347Y-84470319D01*
X162008699Y-84524546D01*
X162008688Y-84524551D01*
X161861965Y-84615052D01*
X161861961Y-84615055D01*
X161740055Y-84736961D01*
X161740052Y-84736965D01*
X161649551Y-84883688D01*
X161649546Y-84883699D01*
X161595319Y-85047347D01*
X161585000Y-85148345D01*
X160994998Y-85148345D01*
X160994998Y-85148344D01*
X160984680Y-85047347D01*
X160930453Y-84883699D01*
X160930448Y-84883688D01*
X160839947Y-84736965D01*
X160839944Y-84736961D01*
X160718038Y-84615055D01*
X160718034Y-84615052D01*
X160571311Y-84524551D01*
X160571300Y-84524546D01*
X160407652Y-84470319D01*
X160306654Y-84460000D01*
X160270000Y-84460000D01*
X160270000Y-85197500D01*
X159770000Y-85197500D01*
X159770000Y-84460000D01*
X159733361Y-84460000D01*
X159733343Y-84460001D01*
X159632347Y-84470319D01*
X159468699Y-84524546D01*
X159468688Y-84524551D01*
X159321965Y-84615052D01*
X159321961Y-84615055D01*
X159200055Y-84736961D01*
X159200052Y-84736965D01*
X159109551Y-84883688D01*
X159109546Y-84883699D01*
X159055319Y-85047347D01*
X159045000Y-85148345D01*
X157865781Y-85148345D01*
X157812137Y-85076686D01*
X157812134Y-85076683D01*
X157696925Y-84990437D01*
X157696918Y-84990433D01*
X157562072Y-84940139D01*
X157562073Y-84940139D01*
X157502473Y-84933732D01*
X157502471Y-84933731D01*
X157502463Y-84933731D01*
X157502455Y-84933731D01*
X157182254Y-84933731D01*
X157169323Y-84929934D01*
X157155883Y-84930894D01*
X157136454Y-84920282D01*
X157115215Y-84914046D01*
X157105055Y-84903133D01*
X157094564Y-84897403D01*
X157073416Y-84869147D01*
X157071662Y-84865934D01*
X157056500Y-84806518D01*
X157056500Y-84748944D01*
X157056500Y-84748942D01*
X157015576Y-84596214D01*
X156958113Y-84496686D01*
X156936519Y-84459283D01*
X156824715Y-84347479D01*
X156824712Y-84347477D01*
X155993416Y-83516181D01*
X155959931Y-83454858D01*
X155964915Y-83385166D01*
X156006787Y-83329233D01*
X156072251Y-83304816D01*
X156081097Y-83304500D01*
X168114108Y-83304500D01*
X168175572Y-83304500D01*
X168184418Y-83304816D01*
G37*
%TD.AperFunction*%
%TA.AperFunction,Conductor*%
G36*
X154220441Y-83324185D02*
G01*
X154266196Y-83376989D01*
X154276140Y-83446147D01*
X154247115Y-83509703D01*
X154241083Y-83516181D01*
X152627787Y-85129477D01*
X152627785Y-85129479D01*
X152580054Y-85177210D01*
X152566682Y-85190582D01*
X152505358Y-85224066D01*
X152435666Y-85219081D01*
X152379733Y-85177210D01*
X152355643Y-85115501D01*
X152348681Y-85047348D01*
X152294453Y-84883699D01*
X152294448Y-84883688D01*
X152203947Y-84736965D01*
X152203944Y-84736961D01*
X152082038Y-84615055D01*
X152082034Y-84615052D01*
X151935311Y-84524551D01*
X151935300Y-84524546D01*
X151771652Y-84470319D01*
X151670654Y-84460000D01*
X151634000Y-84460000D01*
X151634000Y-85373500D01*
X151614315Y-85440539D01*
X151561511Y-85486294D01*
X151510000Y-85497500D01*
X151384000Y-85497500D01*
X151384000Y-85623500D01*
X151364315Y-85690539D01*
X151311511Y-85736294D01*
X151260000Y-85747500D01*
X150409001Y-85747500D01*
X150409001Y-85846654D01*
X150419319Y-85947652D01*
X150473546Y-86111300D01*
X150473551Y-86111311D01*
X150564052Y-86258034D01*
X150564055Y-86258038D01*
X150577982Y-86271965D01*
X150611467Y-86333288D01*
X150606483Y-86402980D01*
X150592366Y-86430065D01*
X150585959Y-86439350D01*
X150563660Y-86461650D01*
X150505348Y-86556188D01*
X150503545Y-86558802D01*
X150478783Y-86578876D01*
X150455071Y-86600205D01*
X150451823Y-86600733D01*
X150449271Y-86602803D01*
X150417585Y-86606304D01*
X150386108Y-86611426D01*
X150383092Y-86610115D01*
X150379824Y-86610477D01*
X150351270Y-86596289D01*
X150322026Y-86583583D01*
X150317651Y-86579585D01*
X150317253Y-86579387D01*
X150317034Y-86579020D01*
X150313799Y-86576064D01*
X149347818Y-85610083D01*
X149314333Y-85548760D01*
X149311499Y-85522402D01*
X149311499Y-85148345D01*
X150409000Y-85148345D01*
X150409000Y-85247500D01*
X151134000Y-85247500D01*
X151134000Y-84460000D01*
X151097361Y-84460000D01*
X151097343Y-84460001D01*
X150996347Y-84470319D01*
X150832699Y-84524546D01*
X150832688Y-84524551D01*
X150685965Y-84615052D01*
X150685961Y-84615055D01*
X150564055Y-84736961D01*
X150564052Y-84736965D01*
X150473551Y-84883688D01*
X150473546Y-84883699D01*
X150419319Y-85047347D01*
X150409000Y-85148345D01*
X149311499Y-85148345D01*
X149311499Y-85148330D01*
X149311498Y-85148313D01*
X149301174Y-85047247D01*
X149282348Y-84990435D01*
X149246908Y-84883484D01*
X149156340Y-84736650D01*
X149034350Y-84614660D01*
X148943129Y-84558395D01*
X148887518Y-84524093D01*
X148887513Y-84524091D01*
X148836856Y-84507305D01*
X148723753Y-84469826D01*
X148723751Y-84469825D01*
X148622678Y-84459500D01*
X148049330Y-84459500D01*
X148049312Y-84459501D01*
X147948247Y-84469825D01*
X147784484Y-84524092D01*
X147784481Y-84524093D01*
X147637651Y-84614659D01*
X147537120Y-84715190D01*
X147513925Y-84727854D01*
X147492770Y-84743691D01*
X147483740Y-84744336D01*
X147475797Y-84748674D01*
X147449440Y-84746789D01*
X147423078Y-84748674D01*
X147415133Y-84744335D01*
X147406105Y-84743690D01*
X147384948Y-84727852D01*
X147361756Y-84715187D01*
X147357418Y-84707242D01*
X147350172Y-84701818D01*
X147340937Y-84677059D01*
X147328272Y-84653863D01*
X147327320Y-84640549D01*
X147325755Y-84636353D01*
X147325755Y-84618674D01*
X147327131Y-84599430D01*
X147329646Y-84581938D01*
X147371356Y-84390199D01*
X147376333Y-84373248D01*
X147444911Y-84189385D01*
X147452259Y-84173298D01*
X147514815Y-84058734D01*
X147546291Y-84001089D01*
X147555845Y-83986221D01*
X147673448Y-83829123D01*
X147685020Y-83815769D01*
X147823769Y-83677020D01*
X147837123Y-83665448D01*
X147994221Y-83547845D01*
X148009089Y-83538291D01*
X148181298Y-83444258D01*
X148197385Y-83436911D01*
X148381248Y-83368333D01*
X148398199Y-83363356D01*
X148589938Y-83321646D01*
X148607436Y-83319130D01*
X148807582Y-83304816D01*
X148816428Y-83304500D01*
X148877892Y-83304500D01*
X154153402Y-83304500D01*
X154220441Y-83324185D01*
G37*
%TD.AperFunction*%
%TD*%
M02*
