%TF.GenerationSoftware,KiCad,Pcbnew,9.0.7*%
%TF.CreationDate,2026-01-29T21:33:16-08:00*%
%TF.ProjectId,Lab3,4c616233-2e6b-4696-9361-645f70636258,rev?*%
%TF.SameCoordinates,Original*%
%TF.FileFunction,Soldermask,Top*%
%TF.FilePolarity,Negative*%
%FSLAX46Y46*%
G04 Gerber Fmt 4.6, Leading zero omitted, Abs format (unit mm)*
G04 Created by KiCad (PCBNEW 9.0.7) date 2026-01-29 21:33:16*
%MOMM*%
%LPD*%
G01*
G04 APERTURE LIST*
G04 Aperture macros list*
%AMRoundRect*
0 Rectangle with rounded corners*
0 $1 Rounding radius*
0 $2 $3 $4 $5 $6 $7 $8 $9 X,Y pos of 4 corners*
0 Add a 4 corners polygon primitive as box body*
4,1,4,$2,$3,$4,$5,$6,$7,$8,$9,$2,$3,0*
0 Add four circle primitives for the rounded corners*
1,1,$1+$1,$2,$3*
1,1,$1+$1,$4,$5*
1,1,$1+$1,$6,$7*
1,1,$1+$1,$8,$9*
0 Add four rect primitives between the rounded corners*
20,1,$1+$1,$2,$3,$4,$5,0*
20,1,$1+$1,$4,$5,$6,$7,0*
20,1,$1+$1,$6,$7,$8,$9,0*
20,1,$1+$1,$8,$9,$2,$3,0*%
G04 Aperture macros list end*
%ADD10R,0.576580X0.351536*%
%ADD11R,0.351536X0.576580*%
%ADD12R,1.270000X0.508000*%
%ADD13RoundRect,0.237500X0.237500X-0.250000X0.237500X0.250000X-0.237500X0.250000X-0.237500X-0.250000X0*%
%ADD14RoundRect,0.237500X-0.237500X0.250000X-0.237500X-0.250000X0.237500X-0.250000X0.237500X0.250000X0*%
%ADD15R,0.850000X0.850000*%
%ADD16C,0.850000*%
%ADD17RoundRect,0.237500X0.237500X-0.287500X0.237500X0.287500X-0.237500X0.287500X-0.237500X-0.287500X0*%
%ADD18RoundRect,0.237500X-0.237500X0.300000X-0.237500X-0.300000X0.237500X-0.300000X0.237500X0.300000X0*%
%ADD19RoundRect,0.237500X0.237500X-0.300000X0.237500X0.300000X-0.237500X0.300000X-0.237500X-0.300000X0*%
G04 APERTURE END LIST*
D10*
%TO.C,U2*%
X157166300Y-87110001D03*
X157166300Y-86610000D03*
X157166300Y-86110000D03*
X157166300Y-85609999D03*
D11*
X156455999Y-85403700D03*
X155956000Y-85403700D03*
X155456001Y-85403700D03*
D10*
X154745700Y-85609999D03*
X154745700Y-86110000D03*
X154745700Y-86610000D03*
X154745700Y-87110001D03*
D11*
X155456001Y-87316300D03*
X155956000Y-87316300D03*
X156455999Y-87316300D03*
%TD*%
D12*
%TO.C,U1*%
X165912800Y-87790499D03*
X165912800Y-88740500D03*
X165912800Y-89690501D03*
X168351200Y-89690501D03*
X168351200Y-88740500D03*
X168351200Y-87790499D03*
%TD*%
D13*
%TO.C,R5*%
X156972000Y-91844500D03*
X156972000Y-90019500D03*
%TD*%
%TO.C,R4*%
X154432000Y-91844500D03*
X154432000Y-90019500D03*
%TD*%
%TO.C,R3*%
X160020000Y-87272500D03*
X160020000Y-85447500D03*
%TD*%
%TO.C,R2*%
X160020000Y-91844500D03*
X160020000Y-90019500D03*
%TD*%
D14*
%TO.C,R1*%
X148336000Y-85447500D03*
X148336000Y-87272500D03*
%TD*%
D15*
%TO.C,J1*%
X154510000Y-94900000D03*
D16*
X155510000Y-94900000D03*
X156510000Y-94900000D03*
X157510000Y-94900000D03*
%TD*%
D17*
%TO.C,D1*%
X148336000Y-91807000D03*
X148336000Y-90057000D03*
%TD*%
D18*
%TO.C,C4*%
X151384000Y-90069500D03*
X151384000Y-91794500D03*
%TD*%
D19*
%TO.C,C3*%
X151384000Y-87222500D03*
X151384000Y-85497500D03*
%TD*%
%TO.C,C2*%
X162560000Y-87222500D03*
X162560000Y-85497500D03*
%TD*%
D18*
%TO.C,C1*%
X162560000Y-90069500D03*
X162560000Y-91794500D03*
%TD*%
M02*
